<svg xmlns:mydata="http://www.w3.org/2000/svg" mydata:contrastcolor="f6adc4" mydata:template="Default" mydata:presentation="2.5" mydata:layouttype="undefined" mydata:specialfontid="undefined" mydata:id1="005" mydata:id2="094" mydata:companyname="SeaLion Client" mydata:companytagline="" version="1.1" xmlns="http://www.w3.org/2000/svg" xmlns:xlink="http://www.w3.org/1999/xlink" viewBox="0 0 550 470"><g fill="#e40046" fill-rule="none" stroke="none" stroke-width="1" stroke-linecap="butt" stroke-linejoin="miter" stroke-miterlimit="10" stroke-dasharray="" stroke-dashoffset="0" font-family="none" font-weight="none" font-size="none" text-anchor="none" style="mix-blend-mode: normal"><g data-paper-data="{&quot;isGlobalGroup&quot;:true,&quot;bounds&quot;:{&quot;x&quot;:65,&quot;y&quot;:138.41357838141758,&quot;width&quot;:420,&quot;height&quot;:193.1728432371648}}"><g data-paper-data="{&quot;isPrimaryText&quot;:true}" fill-rule="nonzero"><path d="M96.72471,322.2439c0,1.13645 -0.1439,2.15852 -0.4317,3.06621c-0.2878,0.90769 -0.66785,1.70837 -1.14014,2.40205c-0.47229,0.69368 -1.02576,1.28404 -1.6604,1.77109c-0.63464,0.48705 -1.29142,0.88555 -1.97034,1.19549c-0.67892,0.30994 -1.36891,0.53871 -2.06997,0.6863c-0.70106,0.14759 -1.36153,0.22139 -1.98141,0.22139h-22.20508v-5.75605h22.20508c1.10693,0 1.96665,-0.3247 2.57915,-0.9741c0.6125,-0.6494 0.91875,-1.52019 0.91875,-2.61236c0,-0.53133 -0.08118,-1.01838 -0.24353,-1.46115c-0.16235,-0.44277 -0.39481,-0.82651 -0.69737,-1.15121c-0.30256,-0.3247 -0.67154,-0.57561 -1.10693,-0.75271c-0.43539,-0.17711 -0.91875,-0.26566 -1.45008,-0.26566h-13.23892c-0.92982,0 -1.93344,-0.16604 -3.01086,-0.49812c-1.07742,-0.33208 -2.07734,-0.8671 -2.99979,-1.60505c-0.92244,-0.73796 -1.68992,-1.70468 -2.30242,-2.90017c-0.6125,-1.19549 -0.91875,-2.65664 -0.91875,-4.38346c0,-1.72682 0.30625,-3.18428 0.91875,-4.37239c0.6125,-1.18811 1.37998,-2.15483 2.30242,-2.90017c0.92244,-0.74534 1.92237,-1.28404 2.99979,-1.61612c1.07742,-0.33208 2.08103,-0.49812 3.01086,-0.49812h19.59272v5.75605h-19.59272c-1.09217,0 -1.94451,0.33208 -2.55702,0.99624c-0.6125,0.66416 -0.91875,1.54233 -0.91875,2.6345c0,1.10693 0.30625,1.98141 0.91875,2.62343c0.6125,0.64202 1.46484,0.96303 2.55702,0.96303h13.23892h0.04428c0.61988,0.01476 1.27666,0.09962 1.97034,0.25459c0.69368,0.15497 1.38367,0.39481 2.06997,0.71951c0.6863,0.3247 1.33939,0.73427 1.95927,1.2287c0.61988,0.49443 1.16966,1.08848 1.64933,1.78216c0.47967,0.69368 0.85972,1.49067 1.14014,2.39098c0.28042,0.90031 0.42063,1.91868 0.42063,3.05514z" data-paper-data="{&quot;glyphName&quot;:&quot;S&quot;,&quot;glyphIndex&quot;:0,&quot;firstGlyphOfWord&quot;:true,&quot;word&quot;:1}"></path><path d="M131.33482,315.58017c0,0.79699 -0.14021,1.65671 -0.42063,2.57915c-0.28042,0.92244 -0.73427,1.77847 -1.36153,2.56809c-0.62726,0.78961 -1.44639,1.45008 -2.45739,1.98141c-1.011,0.53133 -2.23969,0.79699 -3.68609,0.79699h-10.38303v-5.46825h10.38303c0.78223,0 1.38736,-0.23984 1.81537,-0.71951c0.42801,-0.47967 0.64202,-1.07373 0.64202,-1.78216c0,-0.75271 -0.23984,-1.34308 -0.71951,-1.77109c-0.47967,-0.42801 -1.05897,-0.64202 -1.73789,-0.64202h-10.38303c-0.78223,0 -1.38736,0.23984 -1.81537,0.71951c-0.42801,0.47967 -0.64202,1.07373 -0.64202,1.78216v8.03634c0,0.76747 0.23984,1.36522 0.71951,1.79323c0.47967,0.42801 1.07373,0.64202 1.78216,0.64202h10.33876v5.49039h-10.38303c-0.79699,0 -1.65671,-0.14021 -2.57915,-0.42063c-0.92244,-0.28042 -1.77847,-0.73427 -2.56809,-1.36153c-0.78961,-0.62726 -1.45008,-1.44639 -1.98141,-2.45739c-0.53133,-1.011 -0.79699,-2.23969 -0.79699,-3.68609v-8.08061c0,-0.79699 0.14021,-1.65671 0.42063,-2.57915c0.28042,-0.92244 0.73427,-1.77847 1.36153,-2.56809c0.62726,-0.78961 1.44639,-1.45008 2.45739,-1.98141c1.011,-0.53133 2.23969,-0.79699 3.68609,-0.79699h10.38303c0.79699,0 1.65671,0.14021 2.57915,0.42063c0.92244,0.28042 1.77847,0.73427 2.56809,1.36153c0.78961,0.62726 1.45008,1.44639 1.98141,2.45739c0.53133,1.011 0.79699,2.23969 0.79699,3.68609z" data-paper-data="{&quot;glyphName&quot;:&quot;e&quot;,&quot;glyphIndex&quot;:1,&quot;word&quot;:1}"></path><path d="M164.46164,323.66078c0,0.79699 -0.14021,1.65671 -0.42063,2.57915c-0.28042,0.92244 -0.73427,1.77847 -1.36153,2.56809c-0.62726,0.78961 -1.44639,1.45008 -2.45739,1.98141c-1.011,0.53133 -2.23969,0.79699 -3.68609,0.79699h-10.38303c-0.79699,0 -1.65671,-0.14021 -2.57915,-0.42063c-0.92244,-0.28042 -1.77847,-0.73427 -2.56809,-1.36153c-0.78961,-0.62726 -1.45008,-1.44639 -1.98141,-2.45739c-0.53133,-1.011 -0.79699,-2.23969 -0.79699,-3.68609c0,-0.79699 0.14021,-1.6604 0.42063,-2.59022c0.28042,-0.92982 0.73427,-1.78954 1.36153,-2.57915c0.62726,-0.78961 1.44639,-1.45008 2.45739,-1.98141c1.011,-0.53133 2.23969,-0.79699 3.68609,-0.79699h10.38303v5.49039h-10.38303c-0.78223,0 -1.38736,0.23984 -1.81537,0.71951c-0.42801,0.47967 -0.64202,1.07373 -0.64202,1.78216c0,0.75271 0.24722,1.33939 0.74165,1.76002c0.49443,0.42063 1.0811,0.63095 1.76002,0.63095h10.33876c0.78223,0 1.38736,-0.23615 1.81537,-0.70844c0.42801,-0.47229 0.64202,-1.06266 0.64202,-1.77109v-8.03634c0,-0.75271 -0.23246,-1.35046 -0.69737,-1.79323c-0.46491,-0.44277 -1.05159,-0.66416 -1.76002,-0.66416h-12.64118v-5.46825h12.64118c0.79699,0 1.65671,0.14021 2.57915,0.42063c0.92244,0.28042 1.77847,0.73427 2.56809,1.36153c0.78961,0.62726 1.45008,1.44639 1.98141,2.45739c0.53133,1.011 0.79699,2.23969 0.79699,3.68609z" data-paper-data="{&quot;glyphName&quot;:&quot;a&quot;,&quot;glyphIndex&quot;:2,&quot;word&quot;:1}"></path><path d="M203.89799,331.58642h-26.25646c-0.41326,0 -0.79699,-0.0738 -1.15121,-0.22139c-0.35422,-0.14759 -0.66047,-0.35053 -0.91875,-0.60881c-0.25828,-0.25828 -0.46122,-0.56454 -0.60881,-0.91875c-0.14759,-0.35422 -0.22139,-0.73796 -0.22139,-1.15121v-28.84668h5.75605v25.99079h23.40057z" data-paper-data="{&quot;glyphName&quot;:&quot;L&quot;,&quot;glyphIndex&quot;:3,&quot;word&quot;:1}"></path><path d="M218.05197,302.73974h-5.75605v-5.20259h5.75605zM218.05197,331.58642h-5.75605v-23.9319h5.75605z" data-paper-data="{&quot;glyphName&quot;:&quot;i&quot;,&quot;glyphIndex&quot;:4,&quot;word&quot;:1}"></path><path d="M254.32249,323.50581c0,0.98886 -0.12545,1.8781 -0.37636,2.66771c-0.2509,0.78961 -0.58298,1.48329 -0.99624,2.08103c-0.41326,0.59774 -0.89293,1.10693 -1.43901,1.52757c-0.54609,0.42063 -1.118,0.76378 -1.71575,1.02945c-0.59774,0.26566 -1.20287,0.46122 -1.81537,0.58667c-0.6125,0.12545 -1.1918,0.18818 -1.73789,0.18818h-10.38303c-0.79699,0 -1.66778,-0.14021 -2.61236,-0.42063c-0.94458,-0.28042 -1.81906,-0.74165 -2.62343,-1.38367c-0.80437,-0.64202 -1.47591,-1.47591 -2.01462,-2.50167c-0.53871,-1.02576 -0.80806,-2.28397 -0.80806,-3.77464v-7.79281c0,-1.47591 0.26935,-2.72675 0.80806,-3.7525c0.53871,-1.02576 1.21025,-1.85965 2.01462,-2.50167c0.80437,-0.64202 1.67885,-1.10324 2.62343,-1.38367c0.94458,-0.28042 1.81537,-0.42063 2.61236,-0.42063h10.38303c1.47591,0 2.73044,0.26566 3.76357,0.79699c1.03314,0.53133 1.86703,1.19918 2.50167,2.00355c0.63464,0.80437 1.09586,1.67885 1.38367,2.62343c0.2878,0.94458 0.4317,1.82275 0.4317,2.6345zM248.56643,315.75728c0,-0.79699 -0.19925,-1.38736 -0.59774,-1.77109c-0.3985,-0.38374 -0.9741,-0.57561 -1.72682,-0.57561h-10.33876c-0.76747,0 -1.35046,0.19556 -1.74895,0.58667c-0.3985,0.39112 -0.59774,0.96303 -0.59774,1.71575v7.79281c0,0.75271 0.19925,1.32832 0.59774,1.72682c0.3985,0.3985 0.98148,0.59774 1.74895,0.59774h10.33876c0.78223,0 1.36522,-0.19925 1.74895,-0.59774c0.38374,-0.3985 0.57561,-0.9741 0.57561,-1.72682z" data-paper-data="{&quot;glyphName&quot;:&quot;o&quot;,&quot;glyphIndex&quot;:5,&quot;word&quot;:1}"></path><path d="M290.46017,331.58642h-5.75605v-13.2832c0,-0.75271 -0.12914,-1.42794 -0.38743,-2.02569c-0.25828,-0.59774 -0.60881,-1.11062 -1.05159,-1.53864c-0.44277,-0.42801 -0.96303,-0.7564 -1.56078,-0.98517c-0.59774,-0.22877 -1.24346,-0.34315 -1.93713,-0.34315h-10.07309v18.17584h-5.75605v-21.07601c0,-0.3985 0.0738,-0.77116 0.22139,-1.118c0.14759,-0.34684 0.35422,-0.6494 0.61988,-0.90769c0.26566,-0.25828 0.57561,-0.46122 0.92982,-0.60881c0.35422,-0.14759 0.73058,-0.22139 1.12907,-0.22139h12.97326c0.7232,0 1.48698,0.08118 2.29135,0.24353c0.80437,0.16235 1.60136,0.42432 2.39098,0.78592c0.78961,0.3616 1.54233,0.81913 2.25814,1.3726c0.71582,0.55347 1.35046,1.22501 1.90393,2.01462c0.55347,0.78961 0.99255,1.70099 1.31725,2.73413c0.3247,1.03314 0.48705,2.19911 0.48705,3.49791z" data-paper-data="{&quot;glyphName&quot;:&quot;n&quot;,&quot;glyphIndex&quot;:6,&quot;lastGlyphOfWord&quot;:true,&quot;word&quot;:1}"></path><path d="M348.76603,331.58642h-20.76607c-0.53133,0 -1.10324,-0.06273 -1.71575,-0.18818c-0.6125,-0.12545 -1.21763,-0.32101 -1.81537,-0.58667c-0.59774,-0.26566 -1.16966,-0.60881 -1.71575,-1.02945c-0.54609,-0.42063 -1.02945,-0.92982 -1.45008,-1.52757c-0.42063,-0.59774 -0.7564,-1.29142 -1.00731,-2.08103c-0.2509,-0.78961 -0.37636,-1.67885 -0.37636,-2.66771v-15.58562c0,-0.53133 0.06273,-1.10324 0.18818,-1.71575c0.12545,-0.6125 0.32101,-1.21763 0.58667,-1.81537c0.26566,-0.59774 0.6125,-1.16966 1.04052,-1.71575c0.42801,-0.54609 0.94089,-1.02945 1.53864,-1.45008c0.59774,-0.42063 1.28773,-0.7564 2.06997,-1.00731c0.78223,-0.2509 1.66778,-0.37636 2.65664,-0.37636h20.76607v5.75605h-20.76607c-0.75271,0 -1.32832,0.19925 -1.72682,0.59774c-0.3985,0.3985 -0.59774,0.98886 -0.59774,1.77109v15.54134c0,0.73796 0.20294,1.30987 0.60881,1.71575c0.40588,0.40588 0.97779,0.60881 1.71575,0.60881h20.76607z" data-paper-data="{&quot;glyphName&quot;:&quot;C&quot;,&quot;glyphIndex&quot;:7,&quot;firstGlyphOfWord&quot;:true,&quot;word&quot;:2}"></path><path d="M368.8089,331.58642h-2.56809c-0.82651,0 -1.70837,-0.14021 -2.64557,-0.42063c-0.9372,-0.28042 -1.81168,-0.74165 -2.62343,-1.38367c-0.81175,-0.64202 -1.48329,-1.47591 -2.01462,-2.50167c-0.53133,-1.02576 -0.79699,-2.28397 -0.79699,-3.77464v-25.96865h5.75605v25.96865c0,0.70844 0.22139,1.27297 0.66416,1.69361c0.44277,0.42063 0.99624,0.63095 1.6604,0.63095h2.56809z" data-paper-data="{&quot;glyphName&quot;:&quot;l&quot;,&quot;glyphIndex&quot;:8,&quot;word&quot;:2}"></path><path d="M383.07358,302.73974h-5.75605v-5.20259h5.75605zM383.07358,331.58642h-5.75605v-23.9319h5.75605z" data-paper-data="{&quot;glyphName&quot;:&quot;i&quot;,&quot;glyphIndex&quot;:9,&quot;word&quot;:2}"></path><path d="M419.0563,315.58017c0,0.79699 -0.14021,1.65671 -0.42063,2.57915c-0.28042,0.92244 -0.73427,1.77847 -1.36153,2.56809c-0.62726,0.78961 -1.44639,1.45008 -2.45739,1.98141c-1.011,0.53133 -2.23969,0.79699 -3.68609,0.79699h-10.38303v-5.46825h10.38303c0.78223,0 1.38736,-0.23984 1.81537,-0.71951c0.42801,-0.47967 0.64202,-1.07373 0.64202,-1.78216c0,-0.75271 -0.23984,-1.34308 -0.71951,-1.77109c-0.47967,-0.42801 -1.05897,-0.64202 -1.73789,-0.64202h-10.38303c-0.78223,0 -1.38736,0.23984 -1.81537,0.71951c-0.42801,0.47967 -0.64202,1.07373 -0.64202,1.78216v8.03634c0,0.76747 0.23984,1.36522 0.71951,1.79323c0.47967,0.42801 1.07373,0.64202 1.78216,0.64202h10.33876v5.49039h-10.38303c-0.79699,0 -1.65671,-0.14021 -2.57915,-0.42063c-0.92244,-0.28042 -1.77847,-0.73427 -2.56809,-1.36153c-0.78961,-0.62726 -1.45008,-1.44639 -1.98141,-2.45739c-0.53133,-1.011 -0.79699,-2.23969 -0.79699,-3.68609v-8.08061c0,-0.79699 0.14021,-1.65671 0.42063,-2.57915c0.28042,-0.92244 0.73427,-1.77847 1.36153,-2.56809c0.62726,-0.78961 1.44639,-1.45008 2.45739,-1.98141c1.011,-0.53133 2.23969,-0.79699 3.68609,-0.79699h10.38303c0.79699,0 1.65671,0.14021 2.57915,0.42063c0.92244,0.28042 1.77847,0.73427 2.56809,1.36153c0.78961,0.62726 1.45008,1.44639 1.98141,2.45739c0.53133,1.011 0.79699,2.23969 0.79699,3.68609z" data-paper-data="{&quot;glyphName&quot;:&quot;e&quot;,&quot;glyphIndex&quot;:10,&quot;word&quot;:2}"></path><path d="M454.1756,331.58642h-5.75605v-13.2832c0,-0.75271 -0.12914,-1.42794 -0.38743,-2.02569c-0.25828,-0.59774 -0.60881,-1.11062 -1.05159,-1.53864c-0.44277,-0.42801 -0.96303,-0.7564 -1.56078,-0.98517c-0.59774,-0.22877 -1.24346,-0.34315 -1.93713,-0.34315h-10.07309v18.17584h-5.75605v-21.07601c0,-0.3985 0.0738,-0.77116 0.22139,-1.118c0.14759,-0.34684 0.35422,-0.6494 0.61988,-0.90769c0.26566,-0.25828 0.57561,-0.46122 0.92982,-0.60881c0.35422,-0.14759 0.73058,-0.22139 1.12907,-0.22139h12.97326c0.7232,0 1.48698,0.08118 2.29135,0.24353c0.80437,0.16235 1.60136,0.42432 2.39098,0.78592c0.78961,0.3616 1.54233,0.81913 2.25814,1.3726c0.71582,0.55347 1.35046,1.22501 1.90393,2.01462c0.55347,0.78961 0.99255,1.70099 1.31725,2.73413c0.3247,1.03314 0.48705,2.19911 0.48705,3.49791z" data-paper-data="{&quot;glyphName&quot;:&quot;n&quot;,&quot;glyphIndex&quot;:11,&quot;word&quot;:2}"></path><path d="M485,313.41058h-10.05095v18.17584h-5.82247v-18.17584h-7.48287v-5.75605h7.48287v-7.81495h5.82247v7.81495h10.05095z" data-paper-data="{&quot;glyphName&quot;:&quot;t&quot;,&quot;glyphIndex&quot;:12,&quot;lastGlyphOfWord&quot;:true,&quot;word&quot;:2}"></path></g><g data-paper-data="{&quot;fillRule&quot;:&quot;evenodd&quot;,&quot;fillRuleOriginal&quot;:&quot;evenodd&quot;,&quot;isIcon&quot;:true,&quot;iconStyle&quot;:&quot;standalone&quot;,&quot;selectedEffects&quot;:{&quot;container&quot;:&quot;&quot;,&quot;transformation&quot;:&quot;&quot;,&quot;pattern&quot;:&quot;&quot;},&quot;bounds&quot;:{&quot;x&quot;:223.8820586073114,&quot;y&quot;:138.41357838141758,&quot;width&quot;:102.23588278537719,&quot;height&quot;:133.9271181080226},&quot;iconType&quot;:&quot;icon&quot;,&quot;rawIconId&quot;:&quot;a57de377-6c17-4d61-a45d-a3fa9f79ad0c&quot;,&quot;isSvgStockIcon&quot;:true,&quot;combineTerms&quot;:&quot;animal,lion&quot;,&quot;combineTermsExtended&quot;:{&quot;icon&quot;:[&quot;animal&quot;,&quot;lion&quot;]},&quot;isDetailed&quot;:true,&quot;suitableAsStandaloneIcon&quot;:true}" fill-rule="evenodd"><path d="M297.98652,272.34069h0.02831c1.48973,0 2.8755,-0.13822 4.20726,-0.41513l0.53409,-0.1111c5.38748,-1.11432 6.21537,-1.28585 6.99878,-7.24476l0.07375,-0.54765c0.08089,-0.58167 0.16439,-1.1826 0.20079,-1.78092c0.48008,-7.95751 -0.10563,-15.99258 -1.74048,-23.88252c-0.89617,-4.3224 -2.10327,-8.65027 -3.2716,-12.83612c-0.43488,-1.55872 -0.86976,-3.11768 -1.28966,-4.67949c-0.18889,-0.70156 -0.19127,-1.14216 -0.00714,-1.42788c0.16106,-0.25075 0.49126,-0.41418 1.00965,-0.50006c0.58167,-0.09611 1.13502,-0.33092 1.71121,-0.57619c8.10977,-3.45097 13.02501,-8.04078 15.46967,-14.44646c2.79199,-7.31922 4.19441,-14.46407 4.20678,-21.53517v-0.19056c-0.01237,-6.9657 -1.37363,-13.86028 -4.08403,-20.78007c-3.26684,-8.34148 -8.43212,-14.12197 -15.79179,-17.67215c-7.56854,-3.65082 -15.39188,-5.30088 -19.52372,-5.30088c-0.03568,0 -0.07065,0.00071 -0.10563,0.00071h-0.00072c-15.5458,0.15321 -25.79547,2.43729 -34.55519,4.88361c-12.81709,3.57944 -21.3301,11.48842 -25.3016,23.50641c-2.1311,6.44708 -2.67875,13.06545 -2.84623,21.01987c-0.09849,4.67949 0.00785,9.6328 1.44049,14.14742c1.96362,6.18682 6.50489,11.00049 13.49724,14.30777c4.54389,2.14847 9.39086,3.38984 13.9514,4.41209c0.462,0.10325 0.70632,0.21673 0.79054,0.36827c0.08565,0.1525 0.05567,0.42703 -0.09374,0.86429c-3.3532,9.82978 -5.25901,18.85951 -5.82641,27.60494l-0.06518,1.00869c-0.29524,4.51296 -0.59998,9.17889 -0.47152,13.79343c0.09682,3.47857 1.59131,5.51761 4.70328,6.41616c3.25971,0.94042 6.49776,1.26587 9.89164,0.9968c0.76746,-0.06114 1.55562,-0.26907 2.31905,-0.46985c1.20163,-0.31664 2.33808,-0.61521 3.25971,-0.3302c4.71113,1.45309 9.48364,1.19402 14.1046,0.94303l0.03092,-0.00167c0.65803,-0.03568 1.31678,-0.07232 1.97552,-0.10325c0.46272,-0.02212 0.92471,-0.04758 1.38648,-0.07232c2.6295,-0.14369 5.35108,-0.29047 8.03054,0.15797c1.87465,0.31403 3.57206,0.47199 5.15291,0.47294zM281.9799,143.11757c-0.03806,1.05556 -0.07232,2.11208 -0.10634,3.16764c-0.1111,3.42005 -0.22529,6.95666 -0.47009,10.42786c-0.04045,0.57477 0.01975,0.93257 0.18961,1.1255c0.19032,0.21815 0.58095,0.28334 1.1079,0.31498l1.03011,0.05805c2.47939,0.13417 5.043,0.27311 7.46768,1.16833c0.25384,0.09374 0.4444,0.10967 0.56501,0.05091c0.18651,-0.09207 0.28334,-0.40633 0.38492,-0.73963l0.0245,-0.07779c1.5404,-4.97567 3.02703,-9.84477 4.28505,-14.7172c0.11966,-0.46438 0.12061,-0.7708 0.00309,-0.96278c-0.10705,-0.17533 -0.34519,-0.29999 -0.74843,-0.39039c-3.59062,-0.80719 -7.06848,-1.53826 -10.14952,-1.62319l-0.70395,0.00167l-0.08398,0.00021c-0.23243,0.00064 -0.37612,0.00102 -0.51838,-0.00259c-0.41133,-0.01118 -0.77389,-0.02141 -1.0803,-0.02141c-0.57857,0 -0.95802,0.03568 -1.08815,0.16511c-0.12323,0.12261 -0.11657,0.45522 -0.10634,0.9589v0.00459l0.00095,0.04967c0.00524,0.28833 0.01166,0.63191 -0.00333,1.04157zM279.6354,140.94364c-2.85147,0.1375 -6.60957,0.38492 -10.39789,1.0922c-0.82789,0.15416 -0.95088,0.40657 -0.91948,1.13692c0.24147,5.54949 0.40491,9.81146 0.53028,13.81722c0.01356,0.42227 0.0904,0.68348 0.24361,0.82147c0.14441,0.13037 0.3992,0.17557 0.7746,0.15487c1.03986,-0.07446 2.09471,-0.11657 3.21212,-0.16106c0.49459,-0.01975 1.00631,-0.03973 1.54373,-0.06423l0.01118,-0.00072l0.01118,0.00072c0.36827,0.0176 0.7589,0.03331 1.16595,0.04925c0.99609,0.04068 2.12468,0.08588 3.23591,0.16915c0.44202,0.03164 0.72369,-0.02212 0.89284,-0.17462c0.16915,-0.15178 0.25812,-0.43893 0.27311,-0.87951c0.16106,-4.74158 0.36589,-9.71797 0.6095,-14.7919c0.02379,-0.48722 -0.04282,-0.79197 -0.20959,-0.95874c-0.14607,-0.14583 -0.39991,-0.21578 -0.79125,-0.21578c-0.05876,0 -0.12061,0.00167 -0.1858,0.00476zM266.17931,142.46144c-3.35867,0.70228 -6.63122,1.33795 -9.72487,1.88964c-0.97135,0.17295 -1.21115,0.55312 -1.02821,1.62795c0.75248,4.39543 1.46998,8.86296 2.13349,13.03691c0.0659,0.41109 0.16915,0.65256 0.31593,0.73821c0.12942,0.0747 0.34139,0.05638 0.62948,-0.04996c2.53197,-0.95469 5.22166,-1.2485 7.82262,-1.53255l0.41823,-0.0452c0.78317,-0.08636 0.97705,-0.19746 0.92615,-1.01583c-0.08517,-1.40789 -0.07803,-2.83934 -0.06185,-4.23438l-0.33472,-4.02455c-0.00072,-0.12775 -0.00119,-0.25551 -0.0019,-0.38349c-0.00856,-1.62866 -0.01665,-3.31204 0.02545,-4.96854c0.01428,-0.55098 -0.05162,-0.85573 -0.21268,-0.99061c-0.08731,-0.07304 -0.2222,-0.10943 -0.40633,-0.10943c-0.13799,0 -0.30475,0.0207 -0.50078,0.06185zM298.3417,143.29242c-0.10539,-0.01998 -0.19436,-0.03021 -0.26978,-0.03021c-0.3509,0 -0.42394,0.21744 -0.53694,0.69229c-1.4048,5.92727 -2.74679,10.74807 -4.22391,15.16968c-0.24765,0.74296 -0.09135,1.08982 0.69848,1.55015c1.73334,1.01036 3.56754,2.16275 5.6073,3.52306c0.33258,0.22148 0.55383,0.3421 0.71822,0.30951c0.1356,-0.02784 0.28738,-0.1739 0.46272,-0.44606c1.42478,-2.20176 3.34939,-3.42148 5.72173,-3.62393c0.49531,-0.04211 0.85406,-0.32688 1.20806,-0.64043c0.58571,-0.51838 1.16904,-1.03891 1.75237,-1.55967c1.51994,-1.35627 3.09151,-2.75893 4.67806,-4.0914c0.32236,-0.27073 0.48175,-0.49769 0.48817,-0.69538c0.00714,-0.20721 -0.14607,-0.44535 -0.51267,-0.79697l-0.51196,-0.49364c-1.47308,-1.42169 -2.99683,-2.89143 -4.72873,-4.05501c-3.04203,-2.04356 -6.49371,-3.61751 -10.55109,-4.812zM253.26611,145.24153c-3.96365,1.29536 -8.52324,2.90714 -12.46071,5.6613c-0.7746,0.54146 -0.865,0.95255 -0.38635,1.76022c1.14216,1.92627 2.18511,3.82472 3.09936,5.64394c0.82694,1.64389 1.70645,2.66448 3.52948,2.66923c1.06056,0.00238 2.01358,0.56668 2.93592,1.11194l0.06423,0.03878c0.26502,0.15535 1.62771,-0.02784 3.45002,-0.60807c1.7055,-0.54455 2.74132,-1.09767 2.85004,-1.34223c0.00856,-0.01927 0.01499,-0.04068 0.01975,-0.06043l-0.00476,-0.02784l-0.60236,-4.00885c-0.53265,-3.54209 -1.04533,-6.955 -1.55015,-10.36862c-0.03878,-0.26668 -0.11895,-0.43821 -0.23648,-0.51125c-0.05709,-0.03593 -0.13251,-0.05329 -0.22696,-0.05329c-0.12538,0 -0.285,0.03164 -0.48103,0.09516zM237.98628,153.09651c-4.28648,4.06214 -7.34706,8.99166 -9.35422,15.07048c-0.11419,0.34757 -0.12846,0.59523 -0.0414,0.7156c0.12633,0.17533 0.53813,0.20959 0.84454,0.19365h0.14536c1.06984,0 2.23483,0.03735 3.55636,0.11514c2.5917,0.15463 2.59216,0.1525 3.12776,-2.24102l0.00323,-0.01451c0.28334,-1.26753 0.88737,-2.38328 1.79614,-3.32465c1.44381,-1.49449 3.20094,-2.43752 5.36369,-2.87716c-0.35947,-0.68111 -0.71656,-1.34842 -1.06984,-2.00645c-0.96825,-1.8097 -1.88345,-3.51759 -2.73181,-5.2828c-0.26764,-0.55621 -0.49388,-0.83408 -0.71204,-0.87452c-0.21578,-0.04758 -0.51362,0.13251 -0.92781,0.52623zM315.54067,154.62596c-0.01189,-0.00143 -0.0245,-0.00309 -0.03806,-0.00309c-0.13655,0 -0.31022,0.09207 -0.51767,0.27359c-1.42954,1.25159 -2.87002,2.49224 -4.30979,3.73193l-1.73191,1.49282c-0.32378,0.27953 -0.34686,0.39063 -0.3421,0.42632c0.00238,0.01189 0.02784,0.12061 0.38421,0.27929c3.09293,1.37934 4.63191,3.8516 4.57482,7.34777c-0.00571,0.34044 0.04829,0.55954 0.15868,0.64994c0.09682,0.07851 0.27549,0.08873 0.53504,0.03164l0.01356,-0.00238l1.64841,-0.26668c1.52613,-0.24527 3.03584,-0.48817 4.54222,-0.74605c0.32545,-0.05567 0.67564,-0.13989 0.80172,-0.34614c0.08184,-0.13347 0.07946,-0.33901 -0.00547,-0.61116c-1.16523,-3.70743 -2.69707,-8.01223 -5.2288,-11.82672c-0.17842,-0.27073 -0.3371,-0.41133 -0.48484,-0.43107zM284.98648,205.96212l0.89141,-0.1199c9.96301,-1.33652 16.16149,-6.85746 18.95134,-16.87851c3.19785,-11.49151 -0.92686,-21.48402 -11.03284,-26.72947c-2.87383,-1.49211 -5.23189,-2.21746 -7.64633,-2.35164c-0.96183,-0.05329 -1.9239,-0.12704 -2.88501,-0.20007c-1.34603,-0.10301 -2.73799,-0.20935 -4.10639,-0.25551c-1.50971,-0.05067 -3.03917,-0.08565 -4.58362,-0.08565c-6.42734,0 -13.11327,0.5976 -19.67217,3.077c-4.08093,1.54373 -6.67951,4.22653 -8.42641,8.70118c-3.13837,8.03602 -3.08675,16.4315 0.1513,24.9526c2.12635,5.59302 6.04075,8.99785 11.63544,10.11859c3.88586,0.77793 7.88852,1.11361 10.13691,1.16595c6.67023,-0.05876 11.71157,-0.73821 16.58637,-1.39457zM305.59693,165.44303c1.17142,-0.3873 2.53031,-0.35542 3.43718,0.58167c0.94066,0.97325 1.13335,2.17893 0.59094,3.68388c-0.52148,1.44619 -1.45024,2.66519 -2.7613,3.62321c-0.72868,0.53265 -0.77246,1.13264 -0.14536,2.00645c0.1111,0.15487 0.21982,0.23814 0.32378,0.24765c0.19056,0.01665 0.50245,-0.25384 0.73345,-0.47532c0.11277,-0.10801 0.22053,-0.21031 0.3214,-0.28738c2.12135,-1.62533 3.40316,-3.69054 3.80877,-6.139c0.28429,-1.71502 -0.17533,-3.43646 -1.2611,-4.72231c-1.11741,-1.32534 -2.76368,-2.06021 -4.63429,-2.07139c-1.69361,0.02784 -3.25804,1.59298 -4.27149,2.90095c-0.71703,0.92471 -0.19675,1.50162 0.40562,2.17012l0.00143,0.00143l0.18009,0.20245c0.2467,0.28096 0.36589,0.28881 0.39991,0.29119c0.15297,0.01071 0.51601,-0.39896 0.80457,-0.72464c0.14703,-0.16582 0.27477,-0.30998 0.34519,-0.36518c0.5122,-0.40086 1.10362,-0.71964 1.7212,-0.92376zM243.35734,172.44656c-1.08268,-0.42632 -1.92152,-1.25088 -2.36211,-2.32238c-0.40086,-0.97539 -0.40633,-2.04356 -0.01546,-2.9314c0.38492,-0.87381 1.13574,-1.56348 2.05807,-1.89297c0.993,-0.35162 2.08352,-0.26668 3.08032,0.23885c1.45642,0.74201 1.96029,0.05876 2.59525,-0.80719c0.16748,-0.22696 0.33972,-0.462 0.53504,-0.67231c0.11443,-0.12394 0.16511,-0.23409 0.15011,-0.32783c-0.01975,-0.12299 -0.15321,-0.25955 -0.37612,-0.38421c-1.37696,-0.76746 -2.76202,-1.15167 -4.14374,-1.15167c-1.10171,0 -2.20105,0.24456 -3.2923,0.73345c-2.63498,1.18094 -3.99862,3.0532 -4.05334,5.56448c-0.07375,3.0858 1.92627,5.8804 4.75419,6.64383c0.09374,0.02522 0.18889,0.05472 0.285,0.08326l0.0098,0.00285c0.38114,0.11586 0.7732,0.23481 1.0046,0.08922c0.15558,-0.09611 0.26526,-0.3214 0.32473,-0.67064c0.03497,-0.20174 0.09516,-0.40157 0.15558,-0.59927l0.00029,-0.00095c0.21489,-0.70752 0.35706,-1.17546 -0.70994,-1.59512zM308.84117,185.06929c4.59693,-0.24052 9.18222,-0.43416 13.62833,-0.57619c0.8788,-0.02784 1.11527,-0.25717 1.15215,-1.11432c0.1858,-4.21035 -0.29285,-8.59865 -1.46356,-13.4147c-0.23481,-0.97539 -0.59903,-1.08649 -1.4952,-0.93257c-2.05165,0.36494 -4.0669,0.65946 -5.98913,0.87452c-0.95731,0.10801 -1.57775,0.3754 -1.91676,1.42312c-0.66208,2.05022 -1.85181,3.61608 -3.34939,4.40899c-2.25862,1.19568 -2.15751,3.0356 -2.04808,5.02468c0.05044,0.91853 0.10278,1.86894 -0.07494,2.80246c-0.1149,0.59927 -0.07684,0.99775 0.11514,1.21829c0.21126,0.24218 0.64447,0.33092 1.44144,0.28572zM227.67737,172.10304c-0.5976,3.25637 -1.07221,5.9739 -1.29846,8.82561c-0.04568,0.5769 -0.09207,1.16333 -0.13632,1.75784l1.5611,0.09302c0.97063,-0.06114 1.9396,-0.12538 2.90951,-0.18889c2.55243,-0.16819 5.19145,-0.34281 7.79074,-0.47223l0.07137,-0.00309c4.08997,-0.20459 4.08997,-0.20459 4.64785,-4.14374l0.01118,-0.07946c0.04925,-0.34757 0.03259,-0.58594 -0.0226,-0.78388c-0.01927,-0.07613 -2.41992,-0.6792 -2.7073,-0.81005c-0.69372,-0.31593 -1.34913,-0.71798 -1.93151,-1.21067c-1.16071,-0.98205 -1.7852,-2.16203 -2.33523,-3.55351c-0.04877,-0.12371 -0.09921,-0.24979 -0.18414,-0.35233c-0.55055,-0.66374 -2.09604,-0.58357 -3.1899,-0.52671c-0.3076,0.01594 -0.5795,0.02997 -0.7835,0.02522c-1.27039,-0.02997 -2.54101,-0.05971 -3.81139,-0.08969c-0.26573,0.28548 -0.45106,0.752 -0.59142,1.51257zM278.87983,184.5138c0.72845,-2.24815 0.98015,-3.4505 0.44154,-4.20155c-0.70942,-0.98943 -2.1185,-1.05366 -3.21974,-1.05081c-0.26621,0.00048 -0.53218,0.00309 -0.79815,0.00785c-1.10742,0.01951 -2.21414,0.07327 -3.31894,0.15059c-0.10967,0.00761 -0.226,0.01308 -0.34662,0.0188c-0.77056,0.03616 -1.70764,0.07993 -2.14395,0.75771c-0.20792,0.32307 -0.23814,0.72393 -0.08897,1.1914l0.17771,0.55954c0.79125,2.50318 1.61035,5.09058 3.13338,7.33826c0.56906,0.84122 1.24302,1.29441 1.98503,1.31107c0.70228,0 1.39766,-0.43416 2.01192,-1.25801c1.06674,-1.42859 1.61272,-3.11363 2.14062,-4.74301zM295.46145,181.59524l-0.00072,-0.02379c-0.02237,-0.82694 -0.44773,-1.33247 -1.19949,-1.42383c-0.85144,-0.10468 -1.46356,0.36922 -1.66744,1.2573c-0.09278,0.40229 -0.02141,0.77603 0.20245,1.0539c0.21744,0.27049 0.55645,0.41823 0.95636,0.41823h0.01903c0.97944,-0.01189 1.54682,-0.43559 1.68576,-1.25873zM259.05064,182.6232c0.22387,-0.21268 0.34115,-0.5103 0.34995,-0.88499c0.02141,-0.9359 -0.46033,-1.48664 -1.35507,-1.55087l-0.01903,-0.00167l-0.01903,0.00167c-0.83479,0.07065 -1.30869,0.56834 -1.30155,1.36436c0.00714,0.87476 0.46842,1.3891 1.26444,1.41122c0.02379,0.00072 0.04758,0.00072 0.07065,0.00072c0.43274,0 0.77151,-0.11419 1.00965,-0.34044zM226.32562,183.88978l-0.16915,-0.01356c-0.25717,3.72956 -0.39824,7.74887 0.11348,11.77699c3.69149,-0.94613 7.31613,-2.14228 10.8242,-3.29944c0.96968,-0.31974 1.93888,-0.63971 2.90951,-0.95398l0.0866,-0.02784c1.64044,-0.53147 2.46036,-0.7972 2.81533,-1.35746c0.35473,-0.55978 0.24518,-1.41384 0.02614,-3.12125c-0.11609,-0.90497 -0.16367,-1.67957 -0.14774,-2.37876c0.00952,-0.42703 -0.06495,-0.71108 -0.22934,-0.86834c-0.16653,-0.16201 -0.46343,-0.23171 -0.91187,-0.1977c-1.50162,0.09302 -3.02942,0.14369 -4.50725,0.19294l-1.33652,0.04592c-0.85549,0.03092 -1.71121,0.08018 -2.57146,0.13013l-0.00509,0.00024c-2.21375,0.1287 -4.5009,0.26145 -6.89686,0.07209zM320.84012,199.41275c1.19687,-3.62488 2.03333,-7.58115 2.6326,-12.45286c0.05234,-0.42465 0.01284,-0.70323 -0.12252,-0.85239c-0.13965,-0.1563 -0.41823,-0.22125 -0.90712,-0.21339c-0.73059,0.01523 -1.46594,0.02308 -2.19938,0.02617l-6.15423,0.34091c-0.30951,0.00262 -0.61902,0.00547 -0.92852,0.00832c-1.67386,0.01903 -3.40316,0.03473 -5.10723,-0.04853c-0.06281,-0.00309 -0.12371,-0.00476 -0.18175,-0.00476c-0.79506,0 -1.10148,0.29761 -1.22851,1.14216c-0.26431,1.74928 -0.82052,3.58753 -1.70003,5.61777c-0.26026,0.60094 -0.32211,1.02225 -0.19603,1.32629c0.1287,0.30951 0.47223,0.56026 1.11361,0.81266c1.84063,0.72464 3.74859,1.36911 5.59469,1.99289c2.68018,0.9064 5.45243,1.84277 8.08193,3.04369c0.34686,0.15868 0.6007,0.19698 0.7746,0.12228c0.20007,-0.08731 0.35732,-0.34519 0.5279,-0.8612zM235.17669,211.5661c0.28096,0.26026 0.50078,0.35637 0.69372,0.36351c0.17938,-0.01261 0.36661,-0.13965 0.57215,-0.39039c3.04369,-3.70815 6.37952,-6.98355 10.10979,-10.57655c0.52766,-0.50863 0.56811,-0.79363 0.18723,-1.32772c-1.45333,-2.03571 -2.07877,-4.38973 -2.46131,-6.2137c-0.14369,-0.68492 -0.34115,-1.08006 -0.6214,-1.24445c-0.12133,-0.07065 -0.27049,-0.10705 -0.45867,-0.10705c-0.25551,0 -0.58404,0.06685 -1.01345,0.20245c-5.46694,1.72477 -9.97728,3.06534 -14.195,4.2201l-0.09207,0.02545c-0.73178,0.20007 -1.36364,0.37231 -1.52946,0.71204c-0.08636,0.17795 -0.05948,0.42869 0.08184,0.76675l0.01736,0.06423c0.0452,0.36209 0.07161,0.68824 0.09611,0.98823c0.0452,0.56263 0.08113,1.00727 0.2191,1.41193c1.5335,4.50178 4.70827,7.6932 8.39406,11.10516zM310.47316,213.42028c3.46287,-2.34355 7.25499,-5.40794 9.12964,-10.36458c0.33567,-0.88832 0.19365,-1.21519 -0.6911,-1.59083c-1.96743,-0.83646 -4.02003,-1.56515 -6.00411,-2.27075c-2.82387,-1.00322 -5.74385,-2.04071 -8.48683,-3.40815c-0.09135,-0.0452 -0.18104,-0.09278 -0.25646,-0.13322l-0.01903,-0.01023c-0.01094,-0.00072 -0.02141,-0.00072 -0.03164,-0.00072c-0.20174,0 -0.30166,0.12299 -0.44297,0.38896c-1.01583,1.91271 -2.39517,3.68269 -4.09925,5.25973c-0.43346,0.40157 -0.43583,0.65304 -0.01118,1.12455c3.0563,3.38745 6.23821,6.94953 9.72725,10.88772c0.38492,0.43488 0.67539,0.46605 1.18569,0.11752zM275.92345,197.26475l-0.00404,-0.0245c-0.13156,-0.98562 -0.74605,-1.06674 -1.11337,-1.02487c-0.80719,0.09112 -1.25159,0.6221 -1.18807,1.41979c0.03164,0.40729 0.21031,0.62877 0.35471,0.74296c0.16415,0.13013 0.37445,0.19675 0.61663,0.19675c0.07232,0 0.14678,-0.00547 0.22387,-0.01736c0.66493,-0.10158 1.05865,-0.55145 1.1079,-1.26824zM251.31628,217.77456c0.17533,-0.07779 0.31997,-0.27787 0.4413,-0.61283c1.01892,-2.80341 2.29216,-6.10499 4.01218,-9.32972c0.15797,-0.29595 0.20959,-0.51362 0.15321,-0.64685c-0.05162,-0.12538 -0.2191,-0.231 -0.49602,-0.31355c-2.52554,-0.75177 -4.77798,-2.32404 -6.88601,-4.80581c-0.26288,-0.3088 -0.45082,-0.44939 -0.61045,-0.45486h-0.01023c-0.14988,0 -0.33401,0.11348 -0.56263,0.34757c-3.26375,3.33821 -6.58673,6.69165 -9.87665,9.96633c-0.32378,0.3214 -0.47628,0.59523 -0.4413,0.79125c0.03402,0.19056 0.2517,0.37778 0.64447,0.55645c3.86658,1.75808 8.11762,3.21046 12.9948,4.43993l0.03259,0.01118c0.25312,0.10182 0.44916,0.11847 0.60474,0.05091zM293.73191,218.29961c5.1924,-0.35305 9.61163,-1.35936 13.51009,-3.077c0.59046,-0.26026 0.87309,-0.4651 0.91496,-0.66279c0.04282,-0.20245 -0.1356,-0.52243 -0.54598,-0.97634c-3.30491,-3.65414 -6.42401,-7.33826 -8.77255,-10.14c-0.35066,-0.41823 -0.61021,-0.6183 -0.89998,-0.6183c-0.22934,0 -0.4777,0.12538 -0.80553,0.36827c-2.23198,1.65245 -4.4335,2.68422 -6.72971,3.15336c-0.37065,0.07541 -0.59523,0.18889 -0.68658,0.34519c-0.09587,0.16439 -0.07756,0.42537 0.05805,0.84526c0.84454,2.60167 1.36198,5.3192 1.86275,7.94704c0.09754,0.51434 0.19531,1.02773 0.29524,1.54135c0.13584,0.69609 0.33972,1.1041 0.64209,1.28347c0.25883,0.15392 0.61902,0.15321 1.10005,0.00072zM277.63942,211.65507c0.07232,0.79697 0.14678,1.62081 0.01665,2.3859c0,0.42537 0.00238,0.85644 0.00476,1.29179l0.00048,0.07018c0.00524,1.05033 0.01071,2.13563 -0.01641,3.21641c-0.0088,0.35804 0.04758,0.58975 0.17295,0.70965c0.12394,0.11824 0.35233,0.16486 0.70561,0.13799c3.52972,-0.26026 7.52976,-0.5555 11.43465,-0.77056c0.39825,-0.02141 0.65708,-0.10705 0.76818,-0.25312c0.14131,-0.18485 0.10396,-0.5279 0.00476,-0.98657c-0.20721,-0.95874 -0.39682,-1.92152 -0.58571,-2.88334c-0.2191,-1.11289 -0.44511,-2.2629 -0.69681,-3.38674c-0.08731,-0.39135 -0.15155,-0.82314 -0.21435,-1.24136c-0.16748,-1.12051 -0.34115,-2.27932 -0.94993,-2.76987c-0.63496,-0.5103 -1.63508,-0.23338 -2.69612,0.06352c-0.52148,0.14536 -1.06032,0.29524 -1.56918,0.34853c-0.19127,0.01998 -0.38017,0.04068 -0.56977,0.06757c-0.57881,0.08493 -1.2121,0.11205 -1.82398,0.13894c-1.33414,0.05709 -2.71348,0.11657 -3.46834,0.78007c-0.73797,0.64756 -0.63091,1.82945 -0.51743,3.08104zM253.26468,217.0297c-0.20412,0.46605 -0.2517,0.7915 -0.14607,0.993c0.11205,0.21292 0.42632,0.36042 1.01917,0.47699c2.53506,0.4984 4.84935,0.81671 7.0749,0.97301c0.25004,0.01118 0.50173,0.01975 0.75248,0.02855c0.58095,0.01903 1.18165,0.03973 1.77378,0.09374c0.67302,0.05805 0.88642,-0.12609 0.95398,-0.83098c0.30237,-3.15098 0.68182,-6.29388 0.97777,-8.68049c0.06661,-0.53504 0.00952,-0.89451 -0.17938,-1.13097c-0.19698,-0.24623 -0.56192,-0.3873 -1.1493,-0.44535c-2.00002,-0.19841 -3.95794,-0.52552 -5.95487,-0.87071c-0.86048,-0.15083 -1.24541,0.05305 -1.54302,0.79363c-1.32391,3.3011 -2.46107,6.0329 -3.57944,8.5996zM275.47739,219.63803c0.68277,-0.0207 0.9064,-0.25955 0.88665,-0.94684c-0.03259,-1.1041 -0.0264,-2.22555 -0.01951,-3.31014l0.00357,-0.66065l0.1996,-2.05379c-0.00404,-1.1079 -0.00785,-2.21509 0.01189,-3.32227v-0.00547c0.00547,-0.32545 0.01118,-0.66041 -0.12061,-0.77555c-0.09849,-0.0866 -0.31355,-0.07541 -0.47699,-0.05091c-2.23816,0.34519 -4.51748,0.31498 -6.72162,0.28405c-0.55645,-0.00714 -1.11289,-0.01499 -1.66839,-0.01665h-0.01023c-0.52148,0 -0.6842,0.15011 -0.72536,0.66041c-0.22362,2.78105 -0.48793,5.73671 -0.8317,9.30188c-0.03901,0.39825 -0.00571,0.634 0.10705,0.7658c0.1073,0.12394 0.31831,0.19223 0.64614,0.20959c2.45417,0.13013 4.9526,0.04615 7.36704,-0.03568zM307.23629,266.27377c0.64067,-3.31847 0.75652,-6.64716 0.73345,-10.62341c-0.05853,-10.00749 -2.52293,-19.76257 -4.90621,-29.19744c-0.46438,-1.8373 -0.92876,-3.67484 -1.37554,-5.51452c-0.20959,-0.8612 -0.58594,-1.08744 -1.55254,-0.91829c-5.1748,0.89046 -10.48544,1.26277 -15.6205,1.62224c-1.19283,0.0835 -2.38661,0.16677 -3.57944,0.25646c-9.36231,0.70656 -17.03886,0.57715 -24.15968,-0.40467c-1.2937,-0.17938 -1.62057,0.04045 -1.9691,1.29774c-3.42957,12.35342 -5.20668,24.01503 -5.43363,35.65118c-0.00952,0.50482 -0.02689,1.00965 -0.04353,1.51518v0.00143c-0.0659,1.97504 -0.13417,4.01836 0.24837,6.01315c0.20721,1.08506 0.78007,1.77545 1.858,2.23982c0.45796,0.19675 0.639,0.14821 0.70561,0.1023c0.1111,-0.07779 0.16106,-0.31284 0.13965,-0.66041c-0.00952,-0.16677 -0.02308,-0.33497 -0.03568,-0.50411l-0.00048,-0.00476c-0.06804,-0.88665 -0.13869,-1.80423 0.18152,-2.81507l0.11038,-0.34757l0.27929,0.23481c0.66874,0.56263 0.65304,1.14121 0.64043,1.60749v0.00214l-0.00048,0.02212c-0.00309,0.11467 -0.00595,0.22696 0.00524,0.33425c0.30071,2.9088 0.30071,2.9088 3.08342,3.22069l0.12704,0.01428c0.59523,0.06661 0.97158,0.00476 1.16119,-0.1858c0.18794,-0.18889 0.2467,-0.5643 0.18009,-1.14691c-0.02308,-0.20174 -0.05186,-0.40348 -0.08065,-0.60522c-0.07874,-0.5524 -0.15773,-1.10647 -0.12086,-1.66435c0.03664,-0.55478 0.21411,-1.48592 0.80434,-1.71859c0.39373,0.36089 0.35328,1.0332 0.31807,1.62296c-0.01308,0.21696 -0.02545,0.42299 -0.01523,0.59808c0.06828,1.16476 0.13251,2.26481 0.6666,2.82196c0.5919,0.61925 1.60392,0.43036 2.67542,0.23029c0.61116,-0.11443 1.24302,-0.231 1.83111,-0.20483c0.11277,0.0088 0.236,-0.01142 0.36732,-0.03283l0.02712,-0.00452l0.1406,-0.02141c0.30951,-0.04377 0.50482,-0.13037 0.59927,-0.26597c0.09135,-0.13275 0.10491,-0.34614 0.03973,-0.63662c-0.43084,-1.91747 -0.35542,-3.87254 -0.28168,-5.76217c0.02379,-0.6221 0.04758,-1.24445 0.05472,-1.86585c0.00048,-0.08041 -0.00214,-0.16249 -0.00476,-0.24575c-0.00048,-0.0176 -0.00119,-0.03568 -0.00167,-0.05353c-0.02308,-0.61521 -0.05162,-1.38101 0.91591,-1.9898l0.28738,-0.18009l0.08018,0.32949c0.38968,1.60796 0.4237,3.12957 0.45629,4.60098c0.01189,0.54289 0.02379,1.08102 0.05401,1.61748c0.21601,3.90893 0.95493,4.65022 4.94308,4.95974c4.1761,0.32497 8.41094,0.03212 12.50401,-0.25122l0.00761,-0.00048c0.93971,-0.06518 1.87941,-0.13013 2.81911,-0.18818c1.1079,-0.06757 1.36507,-0.67849 1.65792,-1.67625c0.40467,-1.38268 0.57857,-2.83743 0.74605,-4.2439c0.10325,-0.86762 0.20959,-1.7645 0.36993,-2.64069c0.02474,-0.13489 0.03497,-0.29285 0.04615,-0.45629c0.03331,-0.48413 0.07137,-1.03273 0.43655,-1.33105c0.1977,-0.16177 0.462,-0.22458 0.78816,-0.18009c0.3578,0.04687 0.62377,0.1858 0.79125,0.41109c0.30475,0.41181 0.20792,0.9968 0.12228,1.51352c-0.02545,0.15463 -0.05091,0.30546 -0.06281,0.44202l-0.02926,0.34853c-0.21031,2.51365 -0.42869,5.11223 -1.26991,7.57021c-0.14274,0.41608 -0.16891,0.68895 -0.07851,0.81124c0.05948,0.07946 0.23409,0.16915 0.73249,0.15011c0.54931,-0.02212 1.19378,-0.02855 1.80328,0.08184c0.49983,0.09135 0.85073,0.0502 1.04438,-0.12371c0.20483,-0.18009 0.28976,-0.53884 0.25955,-1.09529c-0.04353,-0.80362 -0.08969,-3.13813 0.99347,-3.35867c0.44154,1.04509 0.4011,2.41825 0.27739,3.52472c-0.06114,0.54598 0.00642,0.91092 0.20792,1.11575c0.20959,0.21197 0.60474,0.28429 1.20329,0.22862c0.76199,-0.07304 1.65887,-0.14916 2.55338,-0.13417c0.74439,-0.02141 1.21971,-0.13251 1.48093,-0.43488c0.25717,-0.29999 0.32521,-0.79054 0.20626,-1.49925l-0.04687,-0.2636l-0.00095,-0.005c-0.12751,-0.70109 -0.27192,-1.49473 0.16059,-2.39661l0.18818,-0.39206l0.23648,0.36518c0.57382,0.88594 0.64519,1.73667 0.7087,2.48748c0.01736,0.20721 0.03497,0.41181 0.06185,0.61426l0.01118,0.08255c0.07399,0.5643 0.13347,0.80862 0.73345,0.79602c2.1587,-0.08565 3.4034,-1.13645 3.8033,-3.21355z" data-paper-data="{&quot;isPathIcon&quot;:true}"></path></g></g></g></svg>