<svg xmlns:mydata="http://www.w3.org/2000/svg" mydata:contrastcolor="ffffff" mydata:template="Contrast" mydata:presentation="2.5" mydata:layouttype="undefined" mydata:specialfontid="undefined" mydata:id1="117" mydata:id2="094" mydata:companyname="sea lion client" mydata:companytagline="" version="1.1" xmlns="http://www.w3.org/2000/svg" xmlns:xlink="http://www.w3.org/1999/xlink" viewBox="0 0 550 470"><g fill="#d22630" fill-rule="none" stroke="none" stroke-width="1" stroke-linecap="butt" stroke-linejoin="miter" stroke-miterlimit="10" stroke-dasharray="" stroke-dashoffset="0" font-family="none" font-weight="none" font-size="none" text-anchor="none" style="mix-blend-mode: normal"><g data-paper-data="{&quot;isGlobalGroup&quot;:true,&quot;bounds&quot;:{&quot;x&quot;:132.24372835859236,&quot;y&quot;:114.99999999999999,&quot;width&quot;:285.5125432828153,&quot;height&quot;:240}}"><g data-paper-data="{&quot;isSecondaryText&quot;:true}" fill-rule="nonzero"><path d="M198.77212,343.05927c1.12195,-0.02137 2.04622,0.17096 2.77281,0.577c0.72659,0.40604 1.3036,0.94564 1.73101,1.61881c0.11754,0.18165 0.2137,0.36597 0.2885,0.55296c0.0748,0.18699 0.14425,0.39268 0.20836,0.61707c0.02137,0.0748 0.04274,0.16028 0.06411,0.25645c0.02137,0.09617 0.01603,0.18699 -0.01603,0.27247c-0.02137,0.06411 -0.06144,0.10418 -0.12021,0.12021c-0.05877,0.01603 -0.12555,0.03473 -0.20035,0.0561h-0.12822c-0.06411,0.02137 -0.13624,0.02938 -0.21638,0.02404c-0.08014,-0.00534 -0.15761,-0.00801 -0.2324,-0.00801c-0.09617,0 -0.21103,0.00267 -0.3446,0.00801c-0.13357,0.00534 -0.26446,0.00534 -0.39268,0c-0.12822,-0.00534 -0.24576,-0.01603 -0.35261,-0.03206c-0.10685,-0.01603 -0.18699,-0.04007 -0.24042,-0.07213c-0.08548,-0.0748 -0.14959,-0.17631 -0.19233,-0.30453c-0.04274,-0.12822 -0.09617,-0.24042 -0.16028,-0.33658c-0.20302,-0.35261 -0.47015,-0.63043 -0.80139,-0.83345c-0.22439,-0.13891 -0.47549,-0.2511 -0.75331,-0.33658c-0.18165,-0.06411 -0.40871,-0.09617 -0.68118,-0.09617c-0.27247,0 -0.51022,0.02671 -0.71324,0.08014c-0.08548,0.02137 -0.16295,0.04007 -0.2324,0.0561c-0.06945,0.01603 -0.14158,0.04007 -0.21638,0.07213c-0.72659,0.30987 -1.23949,0.82276 -1.53867,1.53867c-0.05343,0.12822 -0.10151,0.26179 -0.14425,0.4007c-0.04274,0.13891 -0.09082,0.28316 -0.14425,0.43275c-0.01069,0.0748 -0.02137,0.14425 -0.03206,0.20836c-0.01069,0.06411 -0.02137,0.13357 -0.03206,0.20836c-0.02137,0.06411 -0.02938,0.13089 -0.02404,0.20035c0.00534,0.06945 -0.00267,0.14158 -0.02404,0.21638c-0.02137,0.08548 -0.02938,0.17363 -0.02404,0.26446c0.00534,0.09082 0.00801,0.17898 0.00801,0.26446c0,0.04274 -0.00267,0.08548 -0.00801,0.12822c-0.00534,0.04274 -0.00267,0.08548 0.00801,0.12822v0.14425c0.02137,0.05343 0.02938,0.10685 0.02404,0.16028c-0.00534,0.05343 0.00267,0.10685 0.02404,0.16028c0,0.06411 0.01069,0.14959 0.03206,0.25645c0.02137,0.11754 0.04274,0.22706 0.06411,0.32857c0.02137,0.10151 0.04808,0.20035 0.08014,0.29651c0.14959,0.44878 0.34193,0.83078 0.577,1.14599c0.23507,0.31521 0.54495,0.57433 0.92961,0.77735c0.11754,0.05343 0.24042,0.09884 0.36864,0.13624c0.12822,0.0374 0.26713,0.07747 0.41672,0.12021c0.05343,0.01069 0.10418,0.0187 0.15226,0.02404c0.04808,0.00534 0.09884,0.00801 0.15226,0.00801h0.12822c0.05343,0.02137 0.12288,0.02938 0.20836,0.02404c0.08548,-0.00534 0.15494,-0.01336 0.20836,-0.02404c0.06411,0 0.11219,-0.00534 0.14425,-0.01603c0.12822,-0.02137 0.24843,-0.04274 0.36063,-0.06411c0.11219,-0.02137 0.22172,-0.05877 0.32857,-0.11219c0.24576,-0.10685 0.45679,-0.24843 0.6331,-0.42474c0.17631,-0.17631 0.33391,-0.37665 0.47282,-0.60104c0.06411,-0.10685 0.11754,-0.22439 0.16028,-0.35261c0.04274,-0.12822 0.09082,-0.25645 0.14425,-0.38467c0.03206,-0.11754 0.06411,-0.22439 0.09617,-0.32056c0.03206,-0.09617 0.10151,-0.17096 0.20836,-0.22439c0.06411,-0.02137 0.14425,-0.03206 0.24042,-0.03206c0.09617,0 0.18699,0 0.27247,0h0.9777c0.09617,0 0.19501,0 0.29651,0c0.10151,0 0.18432,0.02137 0.24843,0.06411c0.0748,0.05343 0.11487,0.13891 0.12021,0.25645c0.00534,0.11754 -0.00801,0.22973 -0.04007,0.33658l-0.09617,0.43275c-0.05343,0.16028 -0.10418,0.31521 -0.15226,0.46481c-0.04808,0.14959 -0.10952,0.29384 -0.18432,0.43275c-0.05343,0.08548 -0.09617,0.16829 -0.12822,0.24843c-0.03206,0.08014 -0.0748,0.15761 -0.12822,0.2324c-0.58769,0.91893 -1.4425,1.56004 -2.56445,1.92334c-0.11754,0.04274 -0.23507,0.0748 -0.35261,0.09617c-0.11754,0.02137 -0.23507,0.04274 -0.35261,0.06411c-0.05343,0.02137 -0.10418,0.02938 -0.15226,0.02404c-0.04808,-0.00534 -0.09884,0.00267 -0.15226,0.02404c-0.0748,0 -0.14692,0.00267 -0.21638,0.00801c-0.06945,0.00534 -0.14158,0.01336 -0.21638,0.02404h-0.25645c-0.09617,0 -0.19233,0 -0.2885,0c-0.09617,0 -0.18699,-0.01069 -0.27247,-0.03206c-0.03206,-0.01069 -0.08548,-0.01603 -0.16028,-0.01603c-0.0748,-0.01069 -0.14959,-0.02137 -0.22439,-0.03206c-0.0748,-0.01069 -0.15494,-0.02137 -0.24042,-0.03206c-0.10685,-0.03206 -0.21103,-0.05877 -0.31254,-0.08014c-0.10151,-0.02137 -0.20569,-0.04808 -0.31254,-0.08014c-0.09617,-0.03206 -0.19233,-0.06678 -0.2885,-0.10418c-0.09617,-0.0374 -0.18699,-0.07747 -0.27247,-0.12021c-0.64111,-0.27782 -1.18339,-0.64913 -1.62682,-1.11393c-0.44344,-0.46481 -0.80406,-1.01777 -1.08188,-1.65888c-0.06411,-0.16028 -0.11754,-0.32056 -0.16028,-0.48083c-0.04274,-0.16028 -0.09082,-0.3259 -0.14425,-0.49686c-0.02137,-0.05343 -0.03206,-0.09884 -0.03206,-0.13624c0,-0.0374 -0.00534,-0.07747 -0.01603,-0.12021c-0.02137,-0.09617 -0.0374,-0.19768 -0.04808,-0.30453c-0.01069,-0.10685 -0.02671,-0.20836 -0.04808,-0.30453c-0.02137,-0.05343 -0.02938,-0.09884 -0.02404,-0.13624c0.00534,-0.0374 0.00267,-0.07747 -0.00801,-0.12021v-0.30453c-0.02137,-0.05343 -0.03206,-0.13357 -0.03206,-0.24042c0,-0.10685 0.01069,-0.18699 0.03206,-0.24042c0.01069,-0.03206 0.01336,-0.06678 0.00801,-0.10418c-0.00534,-0.0374 -0.00801,-0.06678 -0.00801,-0.08815v-0.14425c0.02137,-0.08548 0.03473,-0.17631 0.04007,-0.27247c0.00534,-0.09617 0.01336,-0.19233 0.02404,-0.2885c0.02137,-0.08548 0.0374,-0.16829 0.04808,-0.24843c0.01069,-0.08014 0.02671,-0.16295 0.04808,-0.24843c0.04274,-0.14959 0.08014,-0.29651 0.11219,-0.44077c0.03206,-0.14425 0.0748,-0.28049 0.12822,-0.40871c0.05343,-0.13891 0.10952,-0.27782 0.16829,-0.41672c0.05877,-0.13891 0.12555,-0.26713 0.20035,-0.38467c0.17096,-0.29919 0.34727,-0.56632 0.52892,-0.80139c0.05343,-0.0748 0.11219,-0.14425 0.17631,-0.20836c0.06411,-0.06411 0.12822,-0.12822 0.19233,-0.19233c0.26713,-0.26713 0.54762,-0.49419 0.84146,-0.68118c0.29384,-0.18699 0.62776,-0.35528 1.00174,-0.50488c0.12822,-0.05343 0.26179,-0.09884 0.4007,-0.13624c0.13891,-0.0374 0.28316,-0.07213 0.43275,-0.10418c0.06411,-0.02137 0.12822,-0.03206 0.19233,-0.03206c0.06411,0 0.12288,-0.01069 0.17631,-0.03206c0.08548,-0.01069 0.16829,-0.0187 0.24843,-0.02404c0.08014,-0.00534 0.16295,-0.01336 0.24843,-0.02404c0.02137,-0.01069 0.04808,-0.01069 0.08014,0c0.03206,0.01069 0.05877,0.01069 0.08014,0z" data-paper-data="{&quot;glyphName&quot;:&quot;C&quot;,&quot;glyphIndex&quot;:0,&quot;firstGlyphOfWord&quot;:true,&quot;word&quot;:1}"></path><path d="M229.66242,343.33174h1.36237c0.11754,0 0.2324,0.00267 0.3446,0.00801c0.11219,0.00534 0.19501,0.04541 0.24843,0.12021c0.05343,0.0748 0.08014,0.17363 0.08014,0.29651c0,0.12288 0,0.25377 0,0.39268v1.45853v4.85643v0.94564c0,0.08548 -0.00267,0.16829 -0.00801,0.24843c-0.00534,0.08014 0.00267,0.15761 0.02404,0.2324v0.16028c0,0.0748 0.00267,0.14692 0.00801,0.21638c0.00534,0.06945 0.0187,0.13089 0.04007,0.18432c0.0748,0.13891 0.22439,0.20836 0.44878,0.20836c0.22439,0 0.44344,0 0.65714,0h3.1094c0.08548,0 0.19233,-0.00267 0.32056,-0.00801c0.12822,-0.00534 0.2511,-0.00534 0.36864,0c0.11754,0.00534 0.22706,0.0187 0.32857,0.04007c0.10151,0.02137 0.16829,0.05343 0.20035,0.09617c0.05343,0.06411 0.08014,0.14425 0.08014,0.24042c0,0.09617 0,0.19768 0,0.30453v0.73728c0,0.08548 0.00267,0.16562 0.00801,0.24042c0.00534,0.0748 -0.00267,0.13891 -0.02404,0.19233c-0.04274,0.08548 -0.09617,0.14425 -0.16028,0.17631c-0.05343,0.04274 -0.13357,0.06411 -0.24042,0.06411c-0.10685,0 -0.20836,0 -0.30453,0h-1.13798h-4.34354h-1.154c-0.14959,0 -0.28049,-0.00801 -0.39268,-0.02404c-0.11219,-0.01603 -0.19501,-0.06678 -0.24843,-0.15226c-0.04274,-0.06411 -0.06411,-0.14692 -0.06411,-0.24843c0,-0.10151 0,-0.20035 0,-0.29651v-1.12195v-4.24737v-3.62229v-1.00975c0,-0.09617 0.00267,-0.19233 0.00801,-0.2885c0.00534,-0.09617 0.02404,-0.17096 0.0561,-0.22439c0.04274,-0.0748 0.12822,-0.12822 0.25645,-0.16028c0.02137,-0.01069 0.04274,-0.01336 0.06411,-0.00801c0.02137,0.00534 0.04274,0.00267 0.06411,-0.00801z" data-paper-data="{&quot;glyphName&quot;:&quot;L&quot;,&quot;glyphIndex&quot;:1,&quot;word&quot;:1}"></path><path d="M256.44778,343.34777h1.37839c0.11754,0 0.22973,0.00267 0.33658,0.00801c0.10685,0.00534 0.18699,0.04541 0.24042,0.12021c0.05343,0.0748 0.08281,0.17096 0.08815,0.2885c0.00534,0.11754 0.00801,0.24576 0.00801,0.38467v1.39442v5.56166v2.62856c0,0.13891 0.00267,0.29384 0.00801,0.46481c0.00534,0.17096 -0.0187,0.29919 -0.07213,0.38467c-0.04274,0.0748 -0.13891,0.13357 -0.2885,0.17631c-0.0748,0.02137 -0.15494,0.02671 -0.24042,0.01603c-0.08548,-0.01069 -0.17096,-0.01603 -0.25645,-0.01603h-0.94564c-0.11754,0 -0.22706,-0.00534 -0.32857,-0.01603c-0.10151,-0.01069 -0.18432,-0.04274 -0.24843,-0.09617c-0.05343,-0.05343 -0.08548,-0.13357 -0.09617,-0.24042c-0.01069,-0.10685 -0.01603,-0.21905 -0.01603,-0.33658v-1.39442v-5.85016v-2.34006c0,-0.14959 -0.00267,-0.3259 -0.00801,-0.52892c-0.00534,-0.20302 0.0187,-0.34727 0.07213,-0.43275c0.04274,-0.06411 0.11219,-0.11754 0.20836,-0.16028c0.03206,0 0.06144,-0.00267 0.08815,-0.00801c0.02671,-0.00534 0.05075,-0.00801 0.07213,-0.00801z" data-paper-data="{&quot;glyphName&quot;:&quot;I&quot;,&quot;glyphIndex&quot;:2,&quot;word&quot;:1}"></path><path d="M280.08528,343.33174h5.99441h1.39442c0.12822,0 0.2511,0.00534 0.36864,0.01603c0.11754,0.01069 0.20302,0.05343 0.25645,0.12822c0.02137,0.03206 0.03473,0.06945 0.04007,0.11219c0.00534,0.04274 0.0187,0.08548 0.04007,0.12822v0.17631c0.01069,0.0748 0.01336,0.15494 0.00801,0.24042c-0.00534,0.08548 -0.00801,0.16562 -0.00801,0.24042c0,0.08548 0.00267,0.16829 0.00801,0.24843c0.00534,0.08014 0.00267,0.15761 -0.00801,0.2324c-0.01069,0.05343 -0.01603,0.13357 -0.01603,0.24042c-0.03206,0.12822 -0.08548,0.2137 -0.16028,0.25645c-0.06411,0.04274 -0.14425,0.06411 -0.24042,0.06411c-0.09617,0 -0.19768,0 -0.30453,0h-1.10592h-2.90104c-0.08548,0 -0.18432,-0.00267 -0.29651,-0.00801c-0.11219,-0.00534 -0.22439,-0.00534 -0.33658,0c-0.11219,0.00534 -0.21638,0.01603 -0.31254,0.03206c-0.09617,0.01603 -0.16562,0.04007 -0.20836,0.07213c-0.0748,0.05343 -0.12021,0.13089 -0.13624,0.2324c-0.01603,0.10151 -0.02404,0.21638 -0.02404,0.3446v0.91359v0.46481c0.02137,0.08548 0.04274,0.15761 0.06411,0.21638c0.02137,0.05877 0.05877,0.10418 0.11219,0.13624c0.06411,0.04274 0.13891,0.06678 0.22439,0.07213c0.08548,0.00534 0.17631,0.00801 0.27247,0.00801h0.8655h2.75679c0.0748,0 0.16829,-0.00267 0.28049,-0.00801c0.11219,-0.00534 0.22172,-0.00534 0.32857,0c0.10685,0.00534 0.20569,0.01336 0.29651,0.02404c0.09082,0.01069 0.15761,0.03206 0.20035,0.06411c0.05343,0.03206 0.09082,0.09617 0.11219,0.19233c0.02137,0.09617 0.03473,0.20035 0.04007,0.31254c0.00534,0.11219 0.00534,0.22706 0,0.3446c-0.00534,0.11754 -0.00801,0.21905 -0.00801,0.30453c0,0.0748 0,0.14959 0,0.22439c0,0.0748 -0.01069,0.13891 -0.03206,0.19233c-0.02137,0.08548 -0.06411,0.15494 -0.12822,0.20836c-0.05343,0.03206 -0.12555,0.05343 -0.21638,0.06411c-0.09082,0.01069 -0.19233,0.01603 -0.30453,0.01603c-0.11219,0 -0.22439,-0.00267 -0.33658,-0.00801c-0.11219,-0.00534 -0.20569,-0.00801 -0.28049,-0.00801h-3.12543c-0.12822,0 -0.2511,-0.00267 -0.36864,-0.00801c-0.11754,-0.00534 -0.22706,0 -0.32857,0.01603c-0.10151,0.01603 -0.18699,0.04808 -0.25645,0.09617c-0.06945,0.04808 -0.12021,0.12021 -0.15226,0.21638c-0.01069,0.05343 -0.01603,0.10952 -0.01603,0.16829c0,0.05877 0,0.11487 0,0.16829v0.60906v0.89756c0,0.12822 0.00801,0.24309 0.02404,0.3446c0.01603,0.10151 0.06144,0.17898 0.13624,0.2324c0.03206,0.03206 0.07213,0.05075 0.12021,0.0561c0.04808,0.00534 0.09884,0.0187 0.15226,0.04007h0.16028c0.05343,0.01069 0.11219,0.01336 0.17631,0.00801c0.06411,-0.00534 0.12288,-0.00801 0.17631,-0.00801h0.67317h3.01323h0.84947c0.08548,0 0.16829,0 0.24843,0c0.08014,0 0.15226,0.01603 0.21638,0.04808c0.08548,0.03206 0.14425,0.09082 0.17631,0.17631c0.02137,0.05343 0.03473,0.11754 0.04007,0.19233c0.00534,0.0748 0.00801,0.15494 0.00801,0.24042v0.73728c0,0.12822 -0.00534,0.24843 -0.01603,0.36063c-0.01069,0.11219 -0.05877,0.19501 -0.14425,0.24843c-0.06411,0.05343 -0.14692,0.08014 -0.24843,0.08014c-0.10151,0 -0.21103,0 -0.32857,0h-1.20209h-4.74424h-1.2662c-0.14959,0 -0.28049,-0.00801 -0.39268,-0.02404c-0.11219,-0.01603 -0.19501,-0.06678 -0.24843,-0.15226c-0.04274,-0.06411 -0.06411,-0.14692 -0.06411,-0.24843c0,-0.10151 0,-0.20035 0,-0.29651v-1.154v-4.35957v-3.49407v-0.99373c0,-0.09617 0,-0.19233 0,-0.2885c0,-0.09617 0.02137,-0.17096 0.06411,-0.22439c0.04274,-0.0748 0.12288,-0.12822 0.24042,-0.16028c0.02137,-0.01069 0.04274,-0.01336 0.06411,-0.00801c0.02137,0.00534 0.04274,0.00267 0.06411,-0.00801z" data-paper-data="{&quot;glyphName&quot;:&quot;E&quot;,&quot;glyphIndex&quot;:3,&quot;word&quot;:1}"></path><path d="M313.65014,343.33174h1.29825c0.11754,0 0.2324,-0.00267 0.3446,-0.00801c0.11219,-0.00534 0.21103,0.01336 0.29651,0.0561c0.10685,0.04274 0.18966,0.10685 0.24843,0.19233c0.05877,0.08548 0.11487,0.17096 0.16829,0.25645l0.577,0.91359c0.37398,0.60906 0.75064,1.21544 1.12996,1.81916c0.37933,0.60371 0.75598,1.2101 1.12996,1.81916c0.18165,0.2885 0.36063,0.57967 0.53693,0.87352c0.17631,0.29384 0.36063,0.57967 0.55296,0.85749c0.04274,0.06411 0.08281,0.12822 0.12021,0.19233c0.0374,0.06411 0.08815,0.12288 0.15226,0.17631c0.02137,0.02137 0.04808,0.04274 0.08014,0.06411c0.03206,0.02137 0.06411,0.02137 0.09617,0c0.0748,-0.02137 0.11219,-0.06945 0.11219,-0.14425c0,-0.0748 0.01069,-0.15494 0.03206,-0.24042c0.01069,-0.0748 0.01336,-0.15761 0.00801,-0.24843c-0.00534,-0.09082 -0.00801,-0.17898 -0.00801,-0.26446v-1.00975v-3.71846v-0.60906c0,-0.05343 -0.00267,-0.10685 -0.00801,-0.16028c-0.00534,-0.05343 -0.00267,-0.10151 0.00801,-0.14425v-0.17631c0,-0.14959 0.03206,-0.26713 0.09617,-0.35261c0.05343,-0.0748 0.12555,-0.11754 0.21638,-0.12822c0.09082,-0.01069 0.19501,-0.01603 0.31254,-0.01603h0.9777c0.08548,0 0.17096,0 0.25645,0c0.08548,0 0.16028,0.01069 0.22439,0.03206c0.13891,0.05343 0.2137,0.14692 0.22439,0.28049c0.01069,0.13357 0.01603,0.29117 0.01603,0.47282v1.76306v6.71566v1.34634c0,0.11754 0.00267,0.23507 0.00801,0.35261c0.00534,0.11754 -0.01336,0.20836 -0.0561,0.27247c-0.04274,0.06411 -0.0935,0.10418 -0.15226,0.12021c-0.05877,0.01603 -0.13089,0.03473 -0.21638,0.0561h-0.56097h-0.88153c-0.09617,0 -0.18966,0 -0.28049,0c-0.09082,0 -0.16829,-0.01603 -0.2324,-0.04808c-0.11754,-0.05343 -0.20836,-0.12555 -0.27247,-0.21638c-0.06411,-0.09082 -0.12822,-0.18966 -0.19233,-0.29651c-0.09617,-0.14959 -0.18966,-0.30186 -0.28049,-0.45679c-0.09082,-0.15494 -0.18432,-0.3072 -0.28049,-0.45679l-2.40417,-3.84668c-0.14959,-0.24576 -0.29651,-0.48351 -0.44077,-0.71324c-0.14425,-0.22973 -0.29117,-0.46748 -0.44077,-0.71324c-0.05343,-0.0748 -0.11487,-0.16829 -0.18432,-0.28049c-0.06945,-0.11219 -0.16295,-0.16829 -0.28049,-0.16829c-0.08548,0.0748 -0.13089,0.16028 -0.13624,0.25645c-0.00534,0.09617 -0.00801,0.21905 -0.00801,0.36864v1.12195v3.83065v0.62509c0,0.05343 0.00267,0.10685 0.00801,0.16028c0.00534,0.05343 -0.00267,0.10685 -0.02404,0.16028v0.17631c0,0.17096 -0.02671,0.29384 -0.08014,0.36864c-0.05343,0.06411 -0.12555,0.10151 -0.21638,0.11219c-0.09082,0.01069 -0.19501,0.01603 -0.31254,0.01603h-0.9777c-0.08548,0 -0.17096,0 -0.25645,0c-0.08548,0 -0.16028,-0.01069 -0.22439,-0.03206c-0.13891,-0.05343 -0.21638,-0.14959 -0.2324,-0.2885c-0.01603,-0.13891 -0.02404,-0.29919 -0.02404,-0.48083v-1.8432v-6.42716v-1.49059c0,-0.11754 0,-0.24042 0,-0.36864c0,-0.12822 0.02137,-0.22973 0.06411,-0.30453c0.04274,-0.0748 0.11754,-0.12822 0.22439,-0.16028c0.02137,0 0.04541,-0.00267 0.07213,-0.00801c0.02671,-0.00534 0.05075,-0.00801 0.07213,-0.00801z" data-paper-data="{&quot;glyphName&quot;:&quot;N&quot;,&quot;glyphIndex&quot;:4,&quot;word&quot;:1}"></path><path d="M347.70817,343.33174h6.41113h1.63484c0.13891,0 0.27514,0.00267 0.40871,0.00801c0.13357,0.00534 0.24309,0.03473 0.32857,0.08815c0.03206,0.02137 0.0561,0.0561 0.07213,0.10418c0.01603,0.04808 0.02938,0.09884 0.04007,0.15226v0.08014c0.01069,0.04274 0.01603,0.09082 0.01603,0.14425c0,0.05343 0,0.10685 0,0.16028v0.62509c0,0.0748 0.00267,0.14692 0.00801,0.21638c0.00534,0.06945 -0.00267,0.13624 -0.02404,0.20035c-0.05343,0.18165 -0.16028,0.27782 -0.32056,0.2885c-0.16028,0.01069 -0.35261,0.01603 -0.577,0.01603h-1.63484c-0.2137,0 -0.39802,0.00801 -0.55296,0.02404c-0.15494,0.01603 -0.25912,0.11487 -0.31254,0.29651c-0.01069,0.05343 -0.01069,0.10151 0,0.14425c0.01069,0.04274 0.00534,0.09082 -0.01603,0.14425c-0.01069,0.06411 -0.01336,0.13624 -0.00801,0.21638c0.00534,0.08014 0.00801,0.15226 0.00801,0.21638v1.42648v4.61601v1.50662c0,0.17096 -0.00801,0.31789 -0.02404,0.44077c-0.01603,0.12288 -0.08281,0.21103 -0.20035,0.26446c-0.0748,0.02137 -0.16028,0.03206 -0.25645,0.03206c-0.09617,0 -0.18699,0 -0.27247,0h-1.08989c-0.11754,0 -0.22706,-0.00534 -0.32857,-0.01603c-0.10151,-0.01069 -0.17898,-0.04808 -0.2324,-0.11219c-0.05343,-0.08548 -0.08014,-0.19501 -0.08014,-0.32857c0,-0.13357 0,-0.2698 0,-0.40871v-1.60278v-4.45574v-1.36237c0,-0.0748 0.00267,-0.15226 0.00801,-0.2324c0.00534,-0.08014 -0.00267,-0.15226 -0.02404,-0.21638c-0.01069,-0.05343 -0.01069,-0.10151 0,-0.14425c0.01069,-0.04274 0.00534,-0.08548 -0.01603,-0.12822c-0.05343,-0.18165 -0.16295,-0.28049 -0.32857,-0.29651c-0.16562,-0.01603 -0.36063,-0.02404 -0.58502,-0.02404h-1.49059c-0.11754,0 -0.24843,0.00267 -0.39268,0.00801c-0.14425,0.00534 -0.25912,-0.00267 -0.3446,-0.02404c-0.08548,-0.03206 -0.14959,-0.08014 -0.19233,-0.14425c-0.03206,-0.05343 -0.05075,-0.12288 -0.0561,-0.20836c-0.00534,-0.08548 -0.00801,-0.17096 -0.00801,-0.25645v-0.78536c0,-0.13891 0.00801,-0.26179 0.02404,-0.36864c0.01603,-0.10685 0.06678,-0.18699 0.15226,-0.24042c0.03206,-0.02137 0.09082,-0.04274 0.17631,-0.06411c0.05343,0 0.08014,0 0.08014,0z" data-paper-data="{&quot;glyphName&quot;:&quot;T&quot;,&quot;glyphIndex&quot;:5,&quot;lastGlyphOfWord&quot;:true,&quot;word&quot;:1}"></path></g><g data-paper-data="{&quot;isPrimaryText&quot;:true}" fill-rule="nonzero"><path d="M147.64431,332.28855c4.00528,0 7.78491,-1.18466 10.60553,-3.32833c1.46672,-1.07184 2.65138,-2.36932 3.49757,-3.83604c0.84619,-1.57955 1.29749,-3.27192 1.29749,-4.96429c0,-3.44116 -1.52313,-6.54384 -4.34375,-8.68751c-2.65138,-2.08726 -6.43101,-3.27192 -10.88759,-3.49757c-2.53856,-0.16924 -4.79505,-0.95901 -6.43101,-2.20008c-1.01542,-0.78977 -2.20008,-2.14367 -2.20008,-4.00528c0,-1.57955 0.78977,-3.10268 2.2565,-4.23093c1.63596,-1.29749 3.83604,-2.03085 6.20536,-2.03085c2.36932,0 4.5694,0.73336 6.20536,2.03085c1.46672,1.12825 2.31291,2.65138 2.31291,4.23093h5.07712c0,-1.63596 -0.39489,-3.15909 -1.18466,-4.62582c-0.73336,-1.3539 -1.74878,-2.59497 -3.04627,-3.61039c-2.48215,-1.97443 -5.81048,-3.10268 -9.36446,-3.10268c-3.49757,0 -6.8259,1.12825 -9.36446,3.10268c-1.29749,1.01542 -2.31291,2.2565 -3.04627,3.61039c-0.78977,1.46672 -1.12825,2.98986 -1.12825,4.62582c0,3.10268 1.46672,5.9233 4.17452,8.01056c2.42573,1.86161 5.64124,2.98986 9.19522,3.27192h0.05641c4.34375,0.22565 6.76949,1.41031 8.06697,2.42573c1.57955,1.24107 2.36932,2.76421 2.36932,4.68223c0,1.74878 -0.95901,3.44116 -2.7078,4.73864c-2.03085,1.46672 -4.73864,2.31291 -7.61567,2.31291c-2.87703,0 -5.58483,-0.84619 -7.55926,-2.31291c-1.8052,-1.29749 -2.76421,-2.98986 -2.76421,-4.73864h-5.07712c0,1.69237 0.4513,3.38474 1.3539,4.96429c0.78977,1.46672 1.97443,2.76421 3.44116,3.83604c2.87703,2.14367 6.65666,3.32833 10.60553,3.32833z" data-paper-data="{&quot;glyphName&quot;:&quot;S&quot;,&quot;glyphIndex&quot;:0,&quot;firstGlyphOfWord&quot;:true,&quot;word&quot;:1}"></path><path d="M176.81892,327.21144v-14.83646h16.98013v-5.07712h-16.98013v-11.79019h19.96999v-5.07712h-25.0471v41.858h2.53856h23.80603v-5.07712z" data-paper-data="{&quot;glyphName&quot;:&quot;E&quot;,&quot;glyphIndex&quot;:1,&quot;word&quot;:1}"></path><path d="M225.51222,290.43055l-18.72892,41.858h5.58483l4.34375,-9.70293h23.41114l4.34375,9.70293h5.58483l-18.78533,-41.858zM218.96839,317.5085l9.42087,-21.09824l9.47728,21.09824z" data-paper-data="{&quot;glyphName&quot;:&quot;A&quot;,&quot;glyphIndex&quot;:2,&quot;lastGlyphOfWord&quot;:true,&quot;word&quot;:1}"></path><path d="M286.62565,327.21144v-36.78088h-5.07712v41.858h2.53856v0h23.80603v-5.07712z" data-paper-data="{&quot;glyphName&quot;:&quot;L&quot;,&quot;glyphIndex&quot;:3,&quot;firstGlyphOfWord&quot;:true,&quot;word&quot;:2}"></path><path d="M318.00035,332.28855h5.07712v-41.858h-5.07712z" data-paper-data="{&quot;glyphName&quot;:&quot;I&quot;,&quot;glyphIndex&quot;:4,&quot;word&quot;:2}"></path><path d="M354.11369,332.28855c2.82062,0 5.58483,-0.56412 8.12339,-1.63596c2.53856,-1.07184 4.73864,-2.59497 6.65666,-4.51299c1.91802,-1.91802 3.44116,-4.1181 4.51299,-6.65666c1.07184,-2.53856 1.63596,-5.30277 1.63596,-8.12339c0,-2.82062 -0.56412,-5.58483 -1.63596,-8.12339c-1.07184,-2.53856 -2.59497,-4.73864 -4.51299,-6.65666c-1.91802,-1.91802 -4.1181,-3.44116 -6.65666,-4.51299c-2.53856,-1.07184 -5.30277,-1.63596 -8.12339,-1.63596c-2.82062,0 -5.58483,0.56412 -8.12339,1.63596c-2.53856,1.07184 -4.73864,2.59497 -6.65666,4.51299c-1.91802,1.91802 -3.44116,4.1181 -4.51299,6.65666c-1.07184,2.53856 -1.63596,5.30277 -1.63596,8.12339c0,2.82062 0.56412,5.58483 1.63596,8.12339c1.07184,2.53856 2.59497,4.73864 4.51299,6.65666c1.91802,1.91802 4.1181,3.44116 6.65666,4.51299c2.53856,1.07184 5.30277,1.63596 8.12339,1.63596zM354.11369,295.50767c4.23093,0 8.23621,1.63596 11.22607,4.62582c2.98986,2.98986 4.62582,6.99514 4.62582,11.22607c0,4.23093 -1.63596,8.23621 -4.62582,11.22607c-2.98986,2.98986 -6.99514,4.62582 -11.22607,4.62582c-4.23093,0 -8.23621,-1.63596 -11.22607,-4.62582c-2.98986,-2.98986 -4.62582,-6.99514 -4.62582,-11.22607c0,-4.23093 1.63596,-8.23621 4.62582,-11.22607c2.98986,-2.98986 6.99514,-4.62582 11.22607,-4.62582z" data-paper-data="{&quot;glyphName&quot;:&quot;O&quot;,&quot;glyphIndex&quot;:5,&quot;word&quot;:2}"></path><path d="M412.67916,324.16517l-23.29832,-33.73461h-5.64124v41.858h5.07712v-33.73461l23.35473,33.73461h5.58483v-41.858h-5.07712z" data-paper-data="{&quot;glyphName&quot;:&quot;N&quot;,&quot;glyphIndex&quot;:6,&quot;lastGlyphOfWord&quot;:true,&quot;word&quot;:2}"></path></g><g data-paper-data="{&quot;fillRule&quot;:&quot;evenodd&quot;,&quot;fillRuleOriginal&quot;:&quot;evenodd&quot;,&quot;isIcon&quot;:true,&quot;iconStyle&quot;:&quot;standalone&quot;,&quot;selectedEffects&quot;:{&quot;container&quot;:&quot;&quot;,&quot;transformation&quot;:&quot;&quot;,&quot;pattern&quot;:&quot;&quot;},&quot;bounds&quot;:{&quot;x&quot;:218.85853320923943,&quot;y&quot;:114.99999999999999,&quot;width&quot;:112.28293358152112,&quot;height&quot;:147.08856907761242},&quot;iconType&quot;:&quot;icon&quot;,&quot;rawIconId&quot;:&quot;a57de377-6c17-4d61-a45d-a3fa9f79ad0c&quot;,&quot;isSvgStockIcon&quot;:true,&quot;combineTerms&quot;:&quot;animal,lion&quot;,&quot;combineTermsExtended&quot;:{&quot;icon&quot;:[&quot;animal&quot;,&quot;lion&quot;]},&quot;isDetailed&quot;:true,&quot;suitableAsStandaloneIcon&quot;:true}" fill-rule="evenodd"><path d="M300.24548,262.08856h0.03109c1.63613,0 3.15808,-0.1518 4.62072,-0.45593l0.58657,-0.12202c5.91692,-1.22383 6.82617,-1.41221 7.68657,-7.95673l0.08099,-0.60147c0.08883,-0.63883 0.18054,-1.29882 0.22052,-1.95593c0.52726,-8.73952 -0.11601,-17.56422 -1.91152,-26.22953c-0.98424,-4.74718 -2.30997,-9.50036 -3.59311,-14.09757c-0.47762,-1.7119 -0.95524,-3.42406 -1.4164,-5.13936c-0.20745,-0.77051 -0.21007,-1.2544 -0.00784,-1.5682c0.17689,-0.27539 0.53954,-0.45489 1.10887,-0.54921c0.63883,-0.10556 1.24656,-0.36344 1.87938,-0.63282c8.90674,-3.79011 14.30503,-8.83097 16.98993,-15.86616c3.06637,-8.03851 4.60661,-15.8855 4.6202,-23.6515v-0.20928c-0.01358,-7.65025 -1.50862,-15.22237 -4.48538,-22.8222c-3.58788,-9.16123 -9.26077,-15.50978 -17.3437,-19.40884c-8.31233,-4.0096 -16.90449,-5.82182 -21.44238,-5.82182c-0.03919,0 -0.0776,0.00078 -0.11601,0.00078h-0.00079c-17.07353,0.16826 -28.33048,2.67681 -37.95104,5.36354c-14.07666,3.93121 -23.42627,12.61743 -27.78807,25.81646c-2.34053,7.08066 -2.942,14.34944 -3.12594,23.08557c-0.10817,5.13936 0.00863,10.57945 1.58205,15.53774c2.15659,6.79482 7.14415,12.08154 14.82366,15.71384c4.99043,2.35961 10.31373,3.72297 15.32244,4.84568c0.5074,0.1134 0.77574,0.23803 0.86823,0.40446c0.09406,0.16748 0.06114,0.469 -0.10295,0.94923c-3.68273,10.79579 -5.77583,20.71289 -6.39899,30.31777l-0.07159,1.10782c-0.32425,4.95647 -0.65894,10.08093 -0.51785,15.14895c0.10634,3.82042 1.74769,6.05984 5.16549,7.0467c3.58005,1.03283 7.13631,1.39027 10.86372,1.09476c0.84288,-0.06715 1.7085,-0.29551 2.54695,-0.51602c1.31972,-0.34776 2.56785,-0.67567 3.58005,-0.36265c5.17411,1.59589 10.41563,1.31136 15.49071,1.03571l0.03396,-0.00183c0.7227,-0.03919 1.44618,-0.07943 2.16966,-0.1134c0.50819,-0.0243 1.01559,-0.05225 1.52273,-0.07943c2.88791,-0.15781 5.87695,-0.31902 8.81973,0.17349c2.05888,0.34489 3.9231,0.51838 5.65931,0.51942zM282.66584,120.16627c-0.0418,1.15929 -0.07943,2.31964 -0.11679,3.47893c-0.12202,3.75615 -0.24743,7.64032 -0.51629,11.45264c-0.04442,0.63125 0.02169,1.02421 0.20824,1.23611c0.20902,0.23959 0.63804,0.31118 1.21678,0.34593l1.13134,0.06376c2.72305,0.14736 5.53859,0.29995 8.20155,1.28314c0.27878,0.10295 0.48807,0.12045 0.62054,0.05592c0.20484,-0.10112 0.31118,-0.44627 0.42275,-0.81232l0.02691,-0.08544c1.69178,-5.46465 3.32451,-10.81225 4.70616,-16.1635c0.13142,-0.51001 0.13247,-0.84655 0.0034,-1.0574c-0.11758,-0.19256 -0.37911,-0.32947 -0.82198,-0.42876c-3.94348,-0.88652 -7.76312,-1.68943 -11.14695,-1.78271l-0.77313,0.00183l-0.09223,0.00024c-0.25527,0.00071 -0.41308,0.00113 -0.56933,-0.00285c-0.45175,-0.01228 -0.84994,-0.02351 -1.18647,-0.02351c-0.63543,0 -1.05217,0.03919 -1.19509,0.18133c-0.13534,0.13466 -0.12803,0.49995 -0.11679,1.05314v0.00505l0.00104,0.05456c0.00575,0.31667 0.0128,0.69401 -0.00366,1.14393zM280.09094,117.77869c-3.13169,0.15102 -7.25912,0.42275 -11.41972,1.19953c-0.90925,0.16931 -1.04433,0.44652 -1.00984,1.24865c0.2652,6.09486 0.4447,10.77566 0.58239,15.17508c0.01489,0.46377 0.09928,0.75065 0.26755,0.9022c0.1586,0.14318 0.43843,0.19283 0.85072,0.17009c1.14205,-0.08178 2.30056,-0.12803 3.52779,-0.17689c0.5432,-0.02169 1.10521,-0.04363 1.69544,-0.07054l0.01228,-0.00079l0.01228,0.00079c0.40446,0.01933 0.83348,0.03658 1.28053,0.05408c1.09398,0.04468 2.33348,0.09432 3.55392,0.18577c0.48546,0.03475 0.79481,-0.0243 0.98058,-0.19178c0.18577,-0.1667 0.28349,-0.48206 0.29995,-0.96595c0.17689,-5.20755 0.40185,-10.67298 0.6694,-16.24554c0.02613,-0.5351 -0.04703,-0.8698 -0.23019,-1.05296c-0.16042,-0.16016 -0.43921,-0.23698 -0.86901,-0.23698c-0.06454,0 -0.13247,0.00183 -0.20406,0.00523zM265.31247,119.44566c-3.68874,0.7713 -7.28289,1.46943 -10.68056,2.07534c-1.0668,0.18995 -1.33017,0.60748 -1.12925,1.78794c0.82642,4.82739 1.61444,9.73395 2.34315,14.31809c0.07237,0.45149 0.18577,0.71669 0.34698,0.81075c0.14214,0.08204 0.37494,0.06192 0.69135,-0.05487c2.78079,-1.04851 5.73481,-1.37119 8.59138,-1.68316l0.45933,-0.04964c0.86013,-0.09484 1.07307,-0.21686 1.01716,-1.11566c-0.09354,-1.54625 -0.0857,-3.11837 -0.06793,-4.65051l-0.36762,-4.42006c-0.00079,-0.14031 -0.00131,-0.28062 -0.00209,-0.42118c-0.00941,-1.78871 -0.01829,-3.63752 0.02795,-5.45681c0.01568,-0.60512 -0.0567,-0.93982 -0.23358,-1.08796c-0.09589,-0.08021 -0.24403,-0.12019 -0.44627,-0.12019c-0.15155,0 -0.3347,0.02273 -0.54999,0.06793zM300.63556,120.3583c-0.11574,-0.02195 -0.21346,-0.03318 -0.29629,-0.03318c-0.38539,0 -0.4656,0.23881 -0.58971,0.76032c-1.54285,6.50976 -3.01673,11.80432 -4.63901,16.66046c-0.27199,0.81597 -0.10033,1.19692 0.76712,1.70249c1.90368,1.10965 3.91814,2.37529 6.15835,3.86928c0.36527,0.24325 0.60826,0.37572 0.7888,0.33992c0.14893,-0.03057 0.31562,-0.19099 0.50819,-0.4899c1.5648,-2.41814 3.67855,-3.75772 6.28402,-3.98006c0.54399,-0.04624 0.93799,-0.359 1.32678,-0.70336c0.64327,-0.56933 1.28392,-1.141 1.92458,-1.71294c1.66931,-1.48955 3.39532,-3.03005 5.13779,-4.49347c0.35403,-0.29733 0.52909,-0.5466 0.53615,-0.76372c0.00784,-0.22758 -0.16042,-0.48911 -0.56306,-0.87529l-0.56228,-0.54215c-1.61784,-1.5614 -3.29133,-3.17558 -5.19344,-4.4535c-3.34098,-2.24439 -7.13187,-3.97301 -11.58798,-5.28489zM251.13025,122.49896c-4.35317,1.42266 -9.36084,3.19283 -13.68527,6.21765c-0.85072,0.59467 -0.95001,1.04616 -0.42431,1.9332c1.2544,2.11557 2.39985,4.20058 3.40395,6.19858c0.90821,1.80544 1.87415,2.92633 3.87634,2.93155c1.16478,0.00261 2.21146,0.62237 3.22445,1.22122l0.07054,0.04259c0.29107,0.17062 1.78767,-0.03057 3.78907,-0.66783c1.87311,-0.59807 3.01072,-1.20554 3.13013,-1.47414c0.00941,-0.02117 0.01646,-0.04468 0.02169,-0.06637l-0.00523,-0.03057l-0.66156,-4.40281c-0.585,-3.89018 -1.14806,-7.63849 -1.70249,-11.38758c-0.04259,-0.29289 -0.13064,-0.48127 -0.25971,-0.56149c-0.0627,-0.03946 -0.14553,-0.05853 -0.24926,-0.05853c-0.1377,0 -0.31301,0.03475 -0.52831,0.10451zM234.34883,131.12587c-4.70772,4.46134 -8.06908,9.8753 -10.27349,16.5515c-0.12542,0.38173 -0.14109,0.65372 -0.04547,0.78592c0.13874,0.19256 0.59102,0.23019 0.92754,0.21268h0.15964c1.17497,0 2.45445,0.04102 3.90586,0.12646c2.8464,0.16983 2.8469,0.16748 3.43514,-2.46125l0.00355,-0.01594c0.31118,-1.3921 0.97457,-2.61749 1.97266,-3.65137c1.5857,-1.64135 3.51551,-2.67706 5.89079,-3.15991c-0.39479,-0.74804 -0.78698,-1.48093 -1.17497,-2.20363c-1.06341,-1.98755 -2.06854,-3.86327 -3.00027,-5.80196c-0.29394,-0.61087 -0.54242,-0.91605 -0.78201,-0.96046c-0.23698,-0.05225 -0.5641,0.14553 -1.01899,0.57795zM319.52473,132.80563c-0.01306,-0.00157 -0.02691,-0.0034 -0.0418,-0.0034c-0.14997,0 -0.34071,0.10112 -0.56854,0.30047c-1.57002,1.37459 -3.15207,2.73716 -4.73333,4.09868l-1.90211,1.63952c-0.3556,0.307 -0.38094,0.42902 -0.37572,0.46821c0.00261,0.01306 0.03057,0.13247 0.42197,0.30674c3.39689,1.51489 5.0871,4.23011 5.0244,8.06986c-0.00627,0.37389 0.05304,0.61453 0.17427,0.71381c0.10634,0.08622 0.30256,0.09745 0.58762,0.03475l0.01489,-0.00261l1.8104,-0.29289c1.6761,-0.26938 3.33418,-0.53615 4.9886,-0.81937c0.35743,-0.06114 0.74203,-0.15363 0.88051,-0.38016c0.08988,-0.14658 0.08727,-0.37233 -0.00601,-0.67122c-1.27974,-4.07177 -2.96212,-8.79962 -5.74265,-12.98896c-0.19596,-0.29733 -0.37023,-0.45175 -0.53249,-0.47343zM285.96788,189.18676l0.97901,-0.13168c10.9421,-1.46786 17.74973,-7.53137 20.81375,-18.53722c3.51211,-12.62082 -1.01794,-23.59532 -12.11708,-29.35626c-3.15625,-1.63874 -5.74604,-2.43538 -8.39776,-2.58274c-1.05635,-0.05853 -2.11296,-0.13952 -3.16853,-0.21974c-1.47831,-0.11313 -3.00706,-0.22993 -4.50993,-0.28062c-1.65808,-0.05565 -3.33784,-0.09406 -5.03406,-0.09406c-7.05897,0 -14.40196,0.65633 -21.60542,3.37938c-4.48198,1.69544 -7.33593,4.64188 -9.2545,9.55628c-3.44679,8.82574 -3.3901,18.04627 0.16617,27.40477c2.33531,6.14267 6.63439,9.88209 12.77889,11.11298c4.26773,0.85438 8.66375,1.22305 11.1331,1.28053c7.32574,-0.06454 12.86251,-0.81075 18.21637,-1.53162zM308.60378,144.68572c1.28654,-0.42537 2.77897,-0.39035 3.77496,0.63883c1.0331,1.06889 1.24473,2.39306 0.64901,4.04591c-0.57273,1.58831 -1.59276,2.92711 -3.03266,3.97928c-0.80029,0.585 -0.84837,1.24395 -0.15964,2.20363c0.12202,0.17009 0.24142,0.26154 0.3556,0.27199c0.20928,0.01829 0.55182,-0.27878 0.80552,-0.52203c0.12385,-0.11862 0.2422,-0.23097 0.35299,-0.31562c2.32982,-1.78506 3.73759,-4.05322 4.18307,-6.7423c0.31222,-1.88356 -0.19256,-3.77418 -1.38504,-5.18639c-1.22723,-1.45559 -3.03528,-2.26268 -5.08971,-2.27495c-1.86005,0.03057 -3.57822,1.74952 -4.69126,3.18603c-0.7875,1.01559 -0.21608,1.64919 0.44548,2.38339l0.00157,0.00157l0.19779,0.22235c0.27094,0.30857 0.40185,0.31719 0.43921,0.31981c0.168,0.01176 0.56672,-0.43816 0.88364,-0.79585c0.16147,-0.18211 0.30177,-0.34044 0.37911,-0.40107c0.56253,-0.44026 1.21208,-0.79037 1.89035,-1.01454zM240.24772,152.37751c-1.18908,-0.46821 -2.11035,-1.37381 -2.59424,-2.5506c-0.44026,-1.07125 -0.44627,-2.24439 -0.01698,-3.21948c0.42275,-0.95968 1.24735,-1.71713 2.26032,-2.07899c1.09058,-0.38617 2.28828,-0.29289 3.38304,0.26233c1.59955,0.81493 2.15294,0.06454 2.85029,-0.88652c0.18394,-0.24926 0.3731,-0.5074 0.58762,-0.73838c0.12567,-0.13612 0.18133,-0.2571 0.16486,-0.36004c-0.02169,-0.13508 -0.16826,-0.28506 -0.41308,-0.42197c-1.51228,-0.84288 -3.03345,-1.26485 -4.55096,-1.26485c-1.20998,0 -2.41736,0.2686 -3.61584,0.80552c-2.89392,1.29699 -4.39158,3.35325 -4.45167,6.11132c-0.08099,3.38905 2.11557,6.45829 5.2214,7.29674c0.10295,0.0277 0.20745,0.06009 0.31301,0.09144l0.01077,0.00313c0.41859,0.12725 0.84919,0.25788 1.10333,0.09798c0.17087,-0.10556 0.29132,-0.35299 0.35665,-0.73655c0.0384,-0.22157 0.10451,-0.44104 0.17087,-0.65816l0.00032,-0.00104c0.23601,-0.77705 0.39215,-1.29098 -0.77971,-1.75188zM312.16685,166.24072c5.04869,-0.26416 10.08458,-0.47683 14.96763,-0.63282c0.96517,-0.03057 1.22487,-0.28244 1.26537,-1.22383c0.20406,-4.62412 -0.32163,-9.44367 -1.60739,-14.733c-0.25788,-1.07125 -0.6579,-1.19326 -1.64214,-1.02421c-2.25327,0.4008 -4.46657,0.72426 -6.5777,0.96046c-1.05139,0.11862 -1.7328,0.4123 -2.10512,1.56297c-0.72714,2.25171 -2.03379,3.97144 -3.67855,4.84228c-2.48058,1.31318 -2.36954,3.33392 -2.24935,5.51848c0.05539,1.0088 0.11288,2.05261 -0.0823,3.07787c-0.12619,0.65816 -0.08439,1.0958 0.12646,1.33801c0.23202,0.26598 0.7078,0.36344 1.58309,0.3138zM223.02682,152.00023c-0.65633,3.57639 -1.17758,6.56097 -1.42606,9.69293c-0.05016,0.6336 -0.10112,1.27766 -0.14971,1.93059l1.71452,0.10216c1.06602,-0.06715 2.13021,-0.1377 3.19544,-0.20745c2.80327,-0.18472 5.70163,-0.3765 8.55636,-0.51864l0.07838,-0.0034c4.49191,-0.2247 4.49191,-0.2247 5.10461,-4.55096l0.01228,-0.08727c0.05408,-0.38173 0.03579,-0.64353 -0.02482,-0.86092c-0.02117,-0.08361 -2.65773,-0.74595 -2.97335,-0.88966c-0.76189,-0.34698 -1.48171,-0.78854 -2.12133,-1.32965c-1.27478,-1.07856 -1.96064,-2.3745 -2.56472,-3.90272c-0.05356,-0.13587 -0.10896,-0.27434 -0.20223,-0.38695c-0.60465,-0.72897 -2.30202,-0.64092 -3.50338,-0.57847c-0.33783,0.0175 -0.63645,0.03292 -0.8605,0.0277c-1.39523,-0.03292 -2.79072,-0.06558 -4.18595,-0.09851c-0.29185,0.31353 -0.49539,0.8259 -0.64954,1.66121zM279.26111,165.63064c0.80004,-2.46909 1.07647,-3.78959 0.48494,-4.61445c-0.77914,-1.08666 -2.32669,-1.1572 -3.53615,-1.15407c-0.29237,0.00052 -0.58448,0.0034 -0.87659,0.00862c-1.21625,0.02142 -2.43173,0.08047 -3.6451,0.16539c-0.12045,0.00836 -0.24821,0.01437 -0.38068,0.02064c-0.84628,0.03971 -1.87546,0.08779 -2.35465,0.83218c-0.22836,0.35481 -0.26154,0.79507 -0.09772,1.30849l0.19517,0.61453c0.86901,2.74918 1.7686,5.59085 3.44131,8.05941c0.62498,0.92389 1.36518,1.42162 2.18011,1.43991c0.7713,0 1.53502,-0.47683 2.20964,-1.38164c1.17158,-1.56898 1.77121,-3.41962 2.35099,-5.20912zM297.47226,162.42526l-0.00079,-0.02613c-0.02456,-0.90821 -0.49172,-1.46342 -1.31737,-1.56376c-0.93512,-0.11496 -1.60739,0.40551 -1.8313,1.38086c-0.1019,0.44182 -0.02351,0.85229 0.22235,1.15747c0.23881,0.29707 0.61113,0.45933 1.05034,0.45933h0.0209c1.07569,-0.01306 1.69884,-0.4784 1.85143,-1.38243zM257.48325,163.55425c0.24587,-0.23358 0.37467,-0.56044 0.38434,-0.97196c0.02351,-1.02787 -0.50557,-1.63273 -1.48824,-1.70328l-0.0209,-0.00183l-0.0209,0.00183c-0.91683,0.0776 -1.4373,0.62419 -1.42946,1.49844c0.00784,0.96072 0.51446,1.52561 1.3887,1.54991c0.02613,0.00079 0.05225,0.00079 0.0776,0.00079c0.47527,0 0.84733,-0.12542 1.10887,-0.37389zM221.54224,164.9453l-0.18577,-0.01489c-0.28244,4.09607 -0.43738,8.51038 0.12463,12.93435c4.05427,-1.03911 8.03511,-2.35281 11.88793,-3.62368c1.06497,-0.35116 2.12942,-0.70258 3.19544,-1.04773l0.09511,-0.03057c1.80165,-0.5837 2.70215,-0.87554 3.092,-1.49086c0.38959,-0.61479 0.26928,-1.55278 0.02871,-3.42798c-0.1275,-0.99391 -0.17976,-1.84463 -0.16225,-2.61253c0.01045,-0.469 -0.07133,-0.78096 -0.25187,-0.95367c-0.1829,-0.17793 -0.50897,-0.25449 -1.00148,-0.21712c-1.64919,0.10216 -3.32713,0.15781 -4.95019,0.2119l-1.46786,0.05043c-0.93956,0.03396 -1.87938,0.08805 -2.82417,0.14292l-0.00559,0.00026c-2.43131,0.14135 -4.94321,0.28715 -7.57463,0.07917zM325.34498,181.99375c1.31449,-3.98111 2.23315,-8.32618 2.89131,-13.67665c0.05748,-0.46638 0.01411,-0.77234 -0.13456,-0.93616c-0.15337,-0.17166 -0.45933,-0.24299 -0.99626,-0.23436c-0.80239,0.01672 -1.61,0.02534 -2.41553,0.02874l-6.75903,0.37441c-0.33992,0.00288 -0.67985,0.00601 -1.01977,0.00914c-1.83836,0.0209 -3.73759,0.03815 -5.60913,-0.0533c-0.06898,-0.0034 -0.13587,-0.00523 -0.19961,-0.00523c-0.87319,0 -1.20972,0.32686 -1.34924,1.2544c-0.29028,1.92118 -0.90115,3.94008 -1.8671,6.16984c-0.28584,0.65999 -0.35377,1.12271 -0.21529,1.45663c0.14135,0.33992 0.51864,0.61532 1.22305,0.89253c2.02152,0.79585 4.11697,1.50366 6.1445,2.18874c2.94357,0.99547 5.98826,2.02387 8.87617,3.3428c0.38094,0.17427 0.65973,0.21634 0.85072,0.1343c0.21974,-0.09589 0.39244,-0.37911 0.57978,-0.94583zM231.26312,195.34145c0.30857,0.28584 0.54999,0.3914 0.76189,0.39924c0.197,-0.01385 0.40263,-0.15337 0.62838,-0.42876c3.3428,-4.07256 7.00645,-7.66985 11.10331,-11.61594c0.57951,-0.55861 0.62394,-0.87162 0.20563,-1.4582c-1.59615,-2.23576 -2.28306,-4.82112 -2.70319,-6.82434c-0.15781,-0.75223 -0.37467,-1.1862 -0.68246,-1.36675c-0.13325,-0.0776 -0.29707,-0.11758 -0.50375,-0.11758c-0.28062,0 -0.64144,0.07342 -1.11305,0.22235c-6.00419,1.89427 -10.95778,3.36658 -15.58999,4.63483l-0.10112,0.02795c-0.80369,0.21974 -1.49765,0.4089 -1.67977,0.78201c-0.09484,0.19544 -0.06532,0.47082 0.08988,0.8421l0.01907,0.07054c0.04964,0.39767 0.07865,0.75588 0.10556,1.08535c0.04964,0.61793 0.0891,1.10625 0.24064,1.55069c1.6842,4.94418 5.17097,8.44924 9.21897,12.1965zM313.95922,197.37786c3.80317,-2.57386 7.96796,-5.93939 10.02684,-11.38314c0.36866,-0.97562 0.21268,-1.33462 -0.75901,-1.74717c-2.16078,-0.91866 -4.41509,-1.71896 -6.59416,-2.49391c-3.10138,-1.10181 -6.30832,-2.24125 -9.32086,-3.74308c-0.10033,-0.04964 -0.19883,-0.1019 -0.28166,-0.14632l-0.0209,-0.01124c-0.01202,-0.00079 -0.02351,-0.00079 -0.03475,-0.00079c-0.22157,0 -0.3313,0.13508 -0.4865,0.42719c-1.11566,2.10068 -2.63055,4.0446 -4.5021,5.77662c-0.47605,0.44104 -0.47866,0.71721 -0.01228,1.23507c3.35665,3.72035 6.85126,7.63248 10.68318,11.95769c0.42275,0.47762 0.74177,0.51185 1.30221,0.12907zM276.0142,179.63467l-0.00444,-0.02691c-0.14449,-1.08248 -0.81937,-1.17158 -1.22278,-1.12559c-0.88652,0.10007 -1.37459,0.68324 -1.30483,1.55932c0.03475,0.44731 0.23097,0.69056 0.38956,0.81597c0.18028,0.14292 0.41125,0.21608 0.67723,0.21608c0.07943,0 0.16121,-0.00601 0.24587,-0.01907c0.73027,-0.11157 1.16269,-0.60564 1.21678,-1.39288zM248.98881,202.16005c0.19256,-0.08544 0.35142,-0.30517 0.48467,-0.67306c1.11906,-3.07891 2.51742,-6.70494 4.40647,-10.24658c0.17349,-0.32503 0.23019,-0.5641 0.16826,-0.71042c-0.0567,-0.1377 -0.24064,-0.2537 -0.54476,-0.34436c-2.77374,-0.82564 -5.24752,-2.55244 -7.56272,-5.2781c-0.28871,-0.33914 -0.49512,-0.49356 -0.67044,-0.49956h-0.01124c-0.16461,0 -0.36684,0.12463 -0.61793,0.38173c-3.58449,3.66626 -7.23403,7.34926 -10.84726,10.94576c-0.3556,0.35299 -0.52308,0.65372 -0.48467,0.86901c0.03736,0.20928 0.27643,0.41491 0.7078,0.61113c4.24656,1.93085 8.91536,3.52596 14.27184,4.87625l0.03579,0.01228c0.278,0.11182 0.4933,0.13011 0.66417,0.05592zM295.57276,202.73669c5.70268,-0.38774 10.55619,-1.49295 14.83777,-3.37938c0.64849,-0.28584 0.95889,-0.5108 1.00488,-0.72793c0.04703,-0.22235 -0.14893,-0.57377 -0.59964,-1.07229c-3.62969,-4.01325 -7.05532,-8.05941 -9.63466,-11.13649c-0.38512,-0.45933 -0.67018,-0.67906 -0.98842,-0.67906c-0.25187,0 -0.52465,0.1377 -0.88469,0.40446c-2.45132,1.81484 -4.8692,2.94801 -7.39106,3.46325c-0.40707,0.08283 -0.65372,0.20745 -0.75405,0.37911c-0.10529,0.18054 -0.08518,0.46717 0.06376,0.92833c0.92754,2.85735 1.49582,5.84194 2.04581,8.72802c0.10712,0.56489 0.21451,1.12873 0.32425,1.69283c0.14919,0.7645 0.3731,1.2126 0.70519,1.4096c0.28427,0.16905 0.67985,0.16826 1.20816,0.00079zM277.8988,195.43917c0.07943,0.87529 0.16121,1.7801 0.01829,2.62037c0,0.46717 0.00261,0.9406 0.00523,1.41874l0.00052,0.07707c0.00575,1.15355 0.01176,2.3455 -0.01803,3.53249c-0.00966,0.39323 0.05225,0.64771 0.18995,0.77939c0.13612,0.12986 0.38695,0.18107 0.77495,0.15155c3.87659,-0.28584 8.26974,-0.61009 12.55837,-0.84628c0.43738,-0.02351 0.72165,-0.11758 0.84367,-0.278c0.1552,-0.20301 0.11418,-0.57978 0.00523,-1.08352c-0.22758,-1.05296 -0.43582,-2.11035 -0.64327,-3.1667c-0.24064,-1.22226 -0.48886,-2.48528 -0.76529,-3.71957c-0.09589,-0.42981 -0.16644,-0.90403 -0.23542,-1.36336c-0.18394,-1.23062 -0.37467,-2.50332 -1.04328,-3.04207c-0.69735,-0.56044 -1.79577,-0.25632 -2.96108,0.06976c-0.57273,0.15964 -1.16452,0.32425 -1.72339,0.38278c-0.21007,0.02195 -0.41753,0.04468 -0.62577,0.07421c-0.63569,0.09328 -1.33122,0.12306 -2.00323,0.15259c-1.46525,0.0627 -2.98015,0.12803 -3.80919,0.85673c-0.81049,0.7112 -0.69291,2.00924 -0.56828,3.38382zM251.12868,201.34198c-0.22418,0.51185 -0.27643,0.86928 -0.16042,1.09058c0.12306,0.23384 0.46821,0.39584 1.11932,0.52386c2.78419,0.54738 5.32591,0.89697 7.77017,1.06863c0.27461,0.01228 0.55104,0.02169 0.82642,0.03135c0.63804,0.0209 1.29777,0.04363 1.94809,0.10295c0.73916,0.06376 0.97353,-0.13848 1.04773,-0.91265c0.33209,-3.46064 0.74883,-6.9124 1.07386,-9.53355c0.07315,-0.58762 0.01045,-0.98241 -0.197,-1.24212c-0.21634,-0.27042 -0.61714,-0.42537 -1.26224,-0.48911c-2.19657,-0.2179 -4.3469,-0.57717 -6.54007,-0.95628c-0.94504,-0.16565 -1.3678,0.05826 -1.69466,0.87162c-1.45401,3.62551 -2.70293,6.62577 -3.93121,9.44471zM275.5243,204.20664c0.74987,-0.02273 0.99547,-0.28506 0.97379,-1.03989c-0.03579,-1.2126 -0.029,-2.44427 -0.02142,-3.63543l0.00392,-0.72557l0.21921,-2.25562c-0.00444,-1.21678 -0.00862,-2.43277 0.01306,-3.64876v-0.00601c0.00601,-0.35743 0.01228,-0.72531 -0.13247,-0.85177c-0.10817,-0.09511 -0.34436,-0.08283 -0.52386,-0.05592c-2.45811,0.37911 -4.96143,0.34593 -7.38218,0.31197c-0.61113,-0.00784 -1.22226,-0.01646 -1.83235,-0.01829h-0.01124c-0.57273,0 -0.75144,0.16486 -0.79664,0.72531c-0.2456,3.05435 -0.53588,6.30048 -0.91343,10.21601c-0.04285,0.43738 -0.00627,0.69631 0.11758,0.84106c0.11784,0.13612 0.34959,0.21112 0.70964,0.23019c2.69535,0.14292 5.43931,0.05069 8.09103,-0.03919zM310.40426,255.42543c0.70363,-3.64458 0.83087,-7.3004 0.80552,-11.66741c-0.06428,-10.99096 -2.77086,-21.70471 -5.38835,-32.06677c-0.51001,-2.01786 -1.02003,-4.03598 -1.51072,-6.05645c-0.23019,-0.94583 -0.64353,-1.19431 -1.70511,-1.00853c-5.68334,0.97797 -11.51587,1.38687 -17.15558,1.78166c-1.31005,0.09171 -2.62115,0.18315 -3.93121,0.28166c-10.28237,0.776 -18.71332,0.63386 -26.53392,-0.44444c-1.42083,-0.197 -1.77983,0.04442 -2.16261,1.42527c-3.7666,13.56743 -5.71835,26.37507 -5.96761,39.15474c-0.01045,0.55444 -0.02953,1.10887 -0.04781,1.66409v0.00157c-0.07237,2.16914 -0.14736,4.41326 0.27278,6.60409c0.22758,1.1917 0.85673,1.94992 2.04059,2.45994c0.50296,0.21608 0.7018,0.16278 0.77495,0.11235c0.12202,-0.08544 0.17689,-0.34358 0.15337,-0.72531c-0.01045,-0.18315 -0.02534,-0.36788 -0.03919,-0.55365l-0.00052,-0.00523c-0.07473,-0.97379 -0.15232,-1.98154 0.19936,-3.09171l0.12123,-0.38173l0.30674,0.25788c0.73446,0.61793 0.71721,1.25336 0.70336,1.76546v0.00235l-0.00052,0.0243c-0.0034,0.12594 -0.00653,0.24926 0.00575,0.3671c0.33026,3.19466 0.33026,3.19466 3.38643,3.53719l0.13952,0.01568c0.65372,0.07315 1.06706,0.00523 1.2753,-0.20406c0.20641,-0.20745 0.27094,-0.61975 0.19779,-1.25962c-0.02534,-0.22157 -0.05696,-0.44313 -0.08858,-0.66469c-0.08648,-0.60669 -0.17323,-1.21521 -0.13273,-1.82791c0.04024,-0.6093 0.23515,-1.63195 0.88338,-1.88748c0.43242,0.39636 0.388,1.13474 0.34933,1.78245c-0.01437,0.23828 -0.02795,0.46456 -0.01672,0.65685c0.07499,1.27922 0.14553,2.48738 0.7321,3.09929c0.65007,0.68011 1.76154,0.47265 2.93834,0.25292c0.67122,-0.12567 1.36518,-0.2537 2.01106,-0.22496c0.12385,0.00966 0.25919,-0.01254 0.40341,-0.03606l0.02979,-0.00496l0.15441,-0.02351c0.33992,-0.04808 0.55444,-0.14318 0.65816,-0.29211c0.10033,-0.14579 0.11522,-0.38016 0.04363,-0.69919c-0.47318,-2.10591 -0.39035,-4.2531 -0.30936,-6.32844c0.02613,-0.68324 0.05225,-1.36675 0.06009,-2.04921c0.00052,-0.08831 -0.00235,-0.17846 -0.00523,-0.2699c-0.00052,-0.01933 -0.00131,-0.03919 -0.00183,-0.05879c-0.02534,-0.67567 -0.0567,-1.51673 1.00592,-2.18534l0.31562,-0.19779l0.08805,0.36187c0.42798,1.76598 0.46534,3.43712 0.50113,5.05313c0.01306,0.59624 0.02613,1.18725 0.05931,1.77643c0.23724,4.29307 1.04877,5.10722 5.42886,5.44715c4.58649,0.35691 9.23752,0.03527 13.73282,-0.27591l0.00836,-0.00052c1.03205,-0.07159 2.0641,-0.14292 3.09616,-0.20667c1.21678,-0.07421 1.49922,-0.74517 1.82085,-1.84098c0.44444,-1.51856 0.63543,-3.11628 0.81937,-4.66096c0.1134,-0.95288 0.23019,-1.93791 0.40629,-2.9002c0.02717,-0.14815 0.0384,-0.32163 0.05069,-0.50113c0.03658,-0.5317 0.07838,-1.13421 0.47945,-1.46185c0.21712,-0.17767 0.5074,-0.24665 0.86562,-0.19779c0.39296,0.05147 0.68507,0.20406 0.86901,0.45149c0.3347,0.45228 0.22836,1.09476 0.1343,1.66226c-0.02795,0.16983 -0.05592,0.33548 -0.06898,0.48546l-0.03214,0.38278c-0.23097,2.76068 -0.47082,5.61462 -1.39471,8.31416c-0.15677,0.45697 -0.18551,0.75666 -0.08622,0.89096c0.06532,0.08727 0.2571,0.18577 0.80448,0.16486c0.60329,-0.0243 1.3111,-0.03135 1.9805,0.08988c0.54895,0.10033 0.93434,0.05513 1.14701,-0.13587c0.22496,-0.19779 0.31824,-0.5918 0.28506,-1.20293c-0.04781,-0.8826 -0.09851,-3.44653 1.0911,-3.68874c0.48494,1.1478 0.44052,2.6559 0.30465,3.87111c-0.06715,0.59964 0.00705,1.00044 0.22836,1.22539c0.23019,0.2328 0.66417,0.31222 1.32155,0.25109c0.83688,-0.08021 1.8219,-0.16382 2.80431,-0.14736c0.81754,-0.02351 1.33958,-0.14553 1.62646,-0.47762c0.28244,-0.32947 0.35717,-0.86823 0.22653,-1.64658l-0.05147,-0.2895l-0.00104,-0.00549c-0.14004,-0.76999 -0.29864,-1.64162 0.17637,-2.63213l0.20667,-0.43059l0.25971,0.40107c0.63021,0.97301 0.70859,1.90733 0.77835,2.73193c0.01907,0.22758 0.0384,0.45228 0.06793,0.67462l0.01228,0.09067c0.08126,0.61975 0.14658,0.88808 0.80552,0.87424c2.37085,-0.09406 3.73786,-1.24813 4.17707,-3.52935z" data-paper-data="{&quot;isPathIcon&quot;:true}"></path></g></g></g></svg>